<mxfile host="Electron" modified="2024-02-07T14:05:40.737Z" agent="Mozilla/5.0 (X11; Linux x86_64) AppleWebKit/537.36 (KHTML, like Gecko) draw.io/22.1.21 Chrome/120.0.6099.109 Electron/28.1.0 Safari/537.36" etag="CyLwVqnvxue0U_7HlOrX" version="22.1.21" type="device">
  <diagram id="C5RBs43oDa-KdzZeNtuy" name="Page-1">
    <mxGraphModel dx="2193" dy="840" grid="1" gridSize="10" guides="1" tooltips="1" connect="1" arrows="1" fold="1" page="1" pageScale="1" pageWidth="827" pageHeight="1169" math="0" shadow="0">
      <root>
        <mxCell id="WIyWlLk6GJQsqaUBKTNV-0" />
        <mxCell id="WIyWlLk6GJQsqaUBKTNV-1" parent="WIyWlLk6GJQsqaUBKTNV-0" />
        <mxCell id="aCpGBL1iy54i-rigjCyc-9" value="&lt;div&gt;main&lt;/div&gt;" style="swimlane;whiteSpace=wrap;html=1;" parent="WIyWlLk6GJQsqaUBKTNV-1" vertex="1">
          <mxGeometry x="-243" y="130" width="240" height="1600" as="geometry" />
        </mxCell>
        <mxCell id="aCpGBL1iy54i-rigjCyc-32" value="" style="edgeStyle=orthogonalEdgeStyle;rounded=0;orthogonalLoop=1;jettySize=auto;html=1;" parent="aCpGBL1iy54i-rigjCyc-9" source="aCpGBL1iy54i-rigjCyc-25" target="aCpGBL1iy54i-rigjCyc-31" edge="1">
          <mxGeometry relative="1" as="geometry" />
        </mxCell>
        <mxCell id="aCpGBL1iy54i-rigjCyc-25" value="Loads configuration" style="rounded=1;whiteSpace=wrap;html=1;fontSize=12;glass=0;strokeWidth=1;shadow=0;" parent="aCpGBL1iy54i-rigjCyc-9" vertex="1">
          <mxGeometry x="50" y="50" width="120" height="40" as="geometry" />
        </mxCell>
        <mxCell id="aCpGBL1iy54i-rigjCyc-31" value="Creates window" style="whiteSpace=wrap;html=1;rounded=1;glass=0;strokeWidth=1;shadow=0;" parent="aCpGBL1iy54i-rigjCyc-9" vertex="1">
          <mxGeometry x="50" y="200" width="120" height="30" as="geometry" />
        </mxCell>
        <mxCell id="-xBotjiaoKr3kxe3PV_f-1" style="edgeStyle=orthogonalEdgeStyle;rounded=0;orthogonalLoop=1;jettySize=auto;html=1;exitX=0.5;exitY=1;exitDx=0;exitDy=0;entryX=0.5;entryY=0;entryDx=0;entryDy=0;" parent="aCpGBL1iy54i-rigjCyc-9" source="aCpGBL1iy54i-rigjCyc-37" target="-xBotjiaoKr3kxe3PV_f-0" edge="1">
          <mxGeometry relative="1" as="geometry" />
        </mxCell>
        <mxCell id="aCpGBL1iy54i-rigjCyc-37" value="&lt;div&gt;Loads geographical data and terrain&lt;br&gt;&lt;/div&gt;" style="whiteSpace=wrap;html=1;rounded=1;glass=0;strokeWidth=1;shadow=0;" parent="aCpGBL1iy54i-rigjCyc-9" vertex="1">
          <mxGeometry x="55" y="320" width="110" height="30" as="geometry" />
        </mxCell>
        <mxCell id="aCpGBL1iy54i-rigjCyc-40" style="edgeStyle=orthogonalEdgeStyle;rounded=0;orthogonalLoop=1;jettySize=auto;html=1;exitX=0.5;exitY=1;exitDx=0;exitDy=0;entryX=0.492;entryY=-0.107;entryDx=0;entryDy=0;entryPerimeter=0;" parent="aCpGBL1iy54i-rigjCyc-9" source="aCpGBL1iy54i-rigjCyc-31" target="aCpGBL1iy54i-rigjCyc-37" edge="1">
          <mxGeometry relative="1" as="geometry" />
        </mxCell>
        <mxCell id="-xBotjiaoKr3kxe3PV_f-0" value="&lt;div&gt;Processing geographical data&lt;br&gt;&lt;/div&gt;" style="whiteSpace=wrap;html=1;rounded=1;glass=0;strokeWidth=1;shadow=0;" parent="aCpGBL1iy54i-rigjCyc-9" vertex="1">
          <mxGeometry x="50" y="800" width="120" height="30" as="geometry" />
        </mxCell>
        <mxCell id="-xBotjiaoKr3kxe3PV_f-79" value="&lt;div&gt;Render&lt;br&gt;&lt;/div&gt;" style="whiteSpace=wrap;html=1;rounded=1;glass=0;strokeWidth=1;shadow=0;fillColor=#1ba1e2;fontColor=#ffffff;strokeColor=#006EAF;" parent="aCpGBL1iy54i-rigjCyc-9" vertex="1">
          <mxGeometry x="55" y="1430" width="120" height="30" as="geometry" />
        </mxCell>
        <mxCell id="-xBotjiaoKr3kxe3PV_f-80" value="" style="edgeStyle=orthogonalEdgeStyle;rounded=0;orthogonalLoop=1;jettySize=auto;html=1;exitX=0.5;exitY=1;exitDx=0;exitDy=0;entryX=0.473;entryY=0.095;entryDx=0;entryDy=0;entryPerimeter=0;" parent="aCpGBL1iy54i-rigjCyc-9" source="-xBotjiaoKr3kxe3PV_f-0" target="-xBotjiaoKr3kxe3PV_f-79" edge="1">
          <mxGeometry relative="1" as="geometry">
            <mxPoint x="-110" y="960" as="sourcePoint" />
            <mxPoint x="-108" y="1613" as="targetPoint" />
          </mxGeometry>
        </mxCell>
        <mxCell id="aCpGBL1iy54i-rigjCyc-10" value="MAGE Procgen Add-on" style="swimlane;whiteSpace=wrap;html=1;" parent="WIyWlLk6GJQsqaUBKTNV-1" vertex="1">
          <mxGeometry x="-513" y="15" width="230" height="215" as="geometry" />
        </mxCell>
        <mxCell id="aCpGBL1iy54i-rigjCyc-18" value="Stores configuration file path" style="rounded=1;whiteSpace=wrap;html=1;fontSize=12;glass=0;strokeWidth=1;shadow=0;" parent="aCpGBL1iy54i-rigjCyc-10" vertex="1">
          <mxGeometry x="40" y="55" width="120" height="40" as="geometry" />
        </mxCell>
        <mxCell id="aCpGBL1iy54i-rigjCyc-23" value="Calls" style="rounded=1;whiteSpace=wrap;html=1;fontSize=12;glass=0;strokeWidth=1;shadow=0;" parent="aCpGBL1iy54i-rigjCyc-10" vertex="1">
          <mxGeometry x="40" y="155" width="120" height="40" as="geometry" />
        </mxCell>
        <mxCell id="aCpGBL1iy54i-rigjCyc-19" value="User" style="swimlane;whiteSpace=wrap;html=1;" parent="WIyWlLk6GJQsqaUBKTNV-1" vertex="1">
          <mxGeometry x="-803" y="15" width="230" height="215" as="geometry" />
        </mxCell>
        <mxCell id="aCpGBL1iy54i-rigjCyc-20" value="Set configuration file path" style="rounded=1;whiteSpace=wrap;html=1;fontSize=12;glass=0;strokeWidth=1;shadow=0;" parent="aCpGBL1iy54i-rigjCyc-19" vertex="1">
          <mxGeometry x="40" y="55" width="140" height="40" as="geometry" />
        </mxCell>
        <mxCell id="aCpGBL1iy54i-rigjCyc-22" value="Starts run" style="rounded=1;whiteSpace=wrap;html=1;fontSize=12;glass=0;strokeWidth=1;shadow=0;" parent="aCpGBL1iy54i-rigjCyc-19" vertex="1">
          <mxGeometry x="45" y="155" width="140" height="40" as="geometry" />
        </mxCell>
        <mxCell id="aCpGBL1iy54i-rigjCyc-21" style="edgeStyle=orthogonalEdgeStyle;rounded=0;orthogonalLoop=1;jettySize=auto;html=1;entryX=0;entryY=0.5;entryDx=0;entryDy=0;" parent="WIyWlLk6GJQsqaUBKTNV-1" source="aCpGBL1iy54i-rigjCyc-20" target="aCpGBL1iy54i-rigjCyc-18" edge="1">
          <mxGeometry relative="1" as="geometry" />
        </mxCell>
        <mxCell id="aCpGBL1iy54i-rigjCyc-24" style="edgeStyle=orthogonalEdgeStyle;rounded=0;orthogonalLoop=1;jettySize=auto;html=1;entryX=0;entryY=0.5;entryDx=0;entryDy=0;" parent="WIyWlLk6GJQsqaUBKTNV-1" source="aCpGBL1iy54i-rigjCyc-22" target="aCpGBL1iy54i-rigjCyc-23" edge="1">
          <mxGeometry relative="1" as="geometry" />
        </mxCell>
        <mxCell id="aCpGBL1iy54i-rigjCyc-26" style="edgeStyle=orthogonalEdgeStyle;rounded=0;orthogonalLoop=1;jettySize=auto;html=1;exitX=1;exitY=0.5;exitDx=0;exitDy=0;entryX=0.5;entryY=0;entryDx=0;entryDy=0;" parent="WIyWlLk6GJQsqaUBKTNV-1" source="aCpGBL1iy54i-rigjCyc-23" target="aCpGBL1iy54i-rigjCyc-9" edge="1">
          <mxGeometry relative="1" as="geometry" />
        </mxCell>
        <mxCell id="aCpGBL1iy54i-rigjCyc-41" value="&lt;div&gt;configuration file path&lt;/div&gt;&lt;div&gt;&lt;br&gt;&lt;/div&gt;" style="edgeLabel;html=1;align=center;verticalAlign=middle;resizable=0;points=[];labelBackgroundColor=none;" parent="aCpGBL1iy54i-rigjCyc-26" vertex="1" connectable="0">
          <mxGeometry x="0.0075" y="-1" relative="1" as="geometry">
            <mxPoint x="44" y="-1" as="offset" />
          </mxGeometry>
        </mxCell>
        <mxCell id="aCpGBL1iy54i-rigjCyc-27" value="Loader.ConfigLoader.load()" style="swimlane;whiteSpace=wrap;html=1;" parent="WIyWlLk6GJQsqaUBKTNV-1" vertex="1">
          <mxGeometry x="57" y="130" width="230" height="120" as="geometry" />
        </mxCell>
        <mxCell id="aCpGBL1iy54i-rigjCyc-28" value="Returns configuration" style="rounded=1;whiteSpace=wrap;html=1;fontSize=12;glass=0;strokeWidth=1;shadow=0;" parent="aCpGBL1iy54i-rigjCyc-27" vertex="1">
          <mxGeometry x="50" y="50" width="120" height="40" as="geometry" />
        </mxCell>
        <mxCell id="aCpGBL1iy54i-rigjCyc-29" style="edgeStyle=orthogonalEdgeStyle;rounded=0;orthogonalLoop=1;jettySize=auto;html=1;entryX=0.525;entryY=-0.001;entryDx=0;entryDy=0;entryPerimeter=0;" parent="WIyWlLk6GJQsqaUBKTNV-1" source="aCpGBL1iy54i-rigjCyc-25" target="aCpGBL1iy54i-rigjCyc-27" edge="1">
          <mxGeometry relative="1" as="geometry">
            <Array as="points">
              <mxPoint x="17" y="200" />
              <mxPoint x="17" y="110" />
              <mxPoint x="178" y="110" />
            </Array>
          </mxGeometry>
        </mxCell>
        <mxCell id="aCpGBL1iy54i-rigjCyc-42" value="&lt;div&gt;configuration file path&lt;/div&gt;&lt;div&gt;&lt;br&gt;&lt;/div&gt;" style="edgeLabel;html=1;align=center;verticalAlign=middle;resizable=0;points=[];labelBackgroundColor=none;" parent="aCpGBL1iy54i-rigjCyc-29" vertex="1" connectable="0">
          <mxGeometry x="0.0333" y="1" relative="1" as="geometry">
            <mxPoint as="offset" />
          </mxGeometry>
        </mxCell>
        <mxCell id="aCpGBL1iy54i-rigjCyc-30" style="edgeStyle=orthogonalEdgeStyle;rounded=0;orthogonalLoop=1;jettySize=auto;html=1;exitX=0.033;exitY=0.998;exitDx=0;exitDy=0;exitPerimeter=0;entryX=0.967;entryY=1;entryDx=0;entryDy=0;entryPerimeter=0;" parent="WIyWlLk6GJQsqaUBKTNV-1" source="aCpGBL1iy54i-rigjCyc-28" target="aCpGBL1iy54i-rigjCyc-25" edge="1">
          <mxGeometry relative="1" as="geometry">
            <mxPoint x="-73" y="210" as="targetPoint" />
            <Array as="points">
              <mxPoint x="67" y="220" />
              <mxPoint x="67" y="220" />
            </Array>
          </mxGeometry>
        </mxCell>
        <mxCell id="aCpGBL1iy54i-rigjCyc-33" value="Utils.Utils.GeoWindow.GeoWindow()" style="swimlane;whiteSpace=wrap;html=1;" parent="WIyWlLk6GJQsqaUBKTNV-1" vertex="1">
          <mxGeometry x="57" y="270" width="230" height="120" as="geometry" />
        </mxCell>
        <mxCell id="aCpGBL1iy54i-rigjCyc-34" value="Returns window" style="rounded=1;whiteSpace=wrap;html=1;fontSize=12;glass=0;strokeWidth=1;shadow=0;" parent="aCpGBL1iy54i-rigjCyc-33" vertex="1">
          <mxGeometry x="50" y="50" width="120" height="30" as="geometry" />
        </mxCell>
        <mxCell id="aCpGBL1iy54i-rigjCyc-35" style="edgeStyle=orthogonalEdgeStyle;rounded=0;orthogonalLoop=1;jettySize=auto;html=1;exitX=1;exitY=0.5;exitDx=0;exitDy=0;entryX=0.5;entryY=0;entryDx=0;entryDy=0;" parent="WIyWlLk6GJQsqaUBKTNV-1" source="aCpGBL1iy54i-rigjCyc-31" target="aCpGBL1iy54i-rigjCyc-33" edge="1">
          <mxGeometry relative="1" as="geometry">
            <mxPoint x="-73" y="330" as="sourcePoint" />
            <mxPoint x="107" y="330" as="targetPoint" />
            <Array as="points">
              <mxPoint x="27" y="345" />
              <mxPoint x="27" y="260" />
              <mxPoint x="172" y="260" />
            </Array>
          </mxGeometry>
        </mxCell>
        <mxCell id="aCpGBL1iy54i-rigjCyc-36" style="edgeStyle=orthogonalEdgeStyle;rounded=0;orthogonalLoop=1;jettySize=auto;html=1;exitX=0.001;exitY=0.892;exitDx=0;exitDy=0;exitPerimeter=0;entryX=0.988;entryY=0.9;entryDx=0;entryDy=0;entryPerimeter=0;" parent="WIyWlLk6GJQsqaUBKTNV-1" source="aCpGBL1iy54i-rigjCyc-34" target="aCpGBL1iy54i-rigjCyc-31" edge="1">
          <mxGeometry relative="1" as="geometry">
            <mxPoint x="107" y="350" as="sourcePoint" />
            <mxPoint x="-83" y="351" as="targetPoint" />
            <Array as="points">
              <mxPoint x="105" y="347" />
            </Array>
          </mxGeometry>
        </mxCell>
        <mxCell id="aCpGBL1iy54i-rigjCyc-38" value="Loader.Loader.load()" style="swimlane;whiteSpace=wrap;html=1;" parent="WIyWlLk6GJQsqaUBKTNV-1" vertex="1">
          <mxGeometry x="57" y="410" width="230" height="460" as="geometry" />
        </mxCell>
        <mxCell id="aCpGBL1iy54i-rigjCyc-39" value="Calculates departements that need to be loaded" style="rounded=1;whiteSpace=wrap;html=1;fontSize=12;glass=0;strokeWidth=1;shadow=0;" parent="aCpGBL1iy54i-rigjCyc-38" vertex="1">
          <mxGeometry x="40" y="120" width="130" height="50" as="geometry" />
        </mxCell>
        <mxCell id="aCpGBL1iy54i-rigjCyc-49" value="" style="edgeStyle=orthogonalEdgeStyle;rounded=0;orthogonalLoop=1;jettySize=auto;html=1;" parent="aCpGBL1iy54i-rigjCyc-38" source="aCpGBL1iy54i-rigjCyc-48" target="aCpGBL1iy54i-rigjCyc-39" edge="1">
          <mxGeometry relative="1" as="geometry" />
        </mxCell>
        <mxCell id="aCpGBL1iy54i-rigjCyc-48" value="Loads departements shape" style="rounded=1;whiteSpace=wrap;html=1;fontSize=12;glass=0;strokeWidth=1;shadow=0;" parent="aCpGBL1iy54i-rigjCyc-38" vertex="1">
          <mxGeometry x="40" y="70" width="130" height="30" as="geometry" />
        </mxCell>
        <mxCell id="aCpGBL1iy54i-rigjCyc-58" value="For each departement" style="swimlane;whiteSpace=wrap;html=1;" parent="aCpGBL1iy54i-rigjCyc-38" vertex="1">
          <mxGeometry x="10" y="190" width="200" height="190" as="geometry" />
        </mxCell>
        <mxCell id="aCpGBL1iy54i-rigjCyc-69" style="edgeStyle=orthogonalEdgeStyle;rounded=0;orthogonalLoop=1;jettySize=auto;html=1;exitX=0.5;exitY=1;exitDx=0;exitDy=0;entryX=0.5;entryY=0;entryDx=0;entryDy=0;" parent="aCpGBL1iy54i-rigjCyc-58" source="aCpGBL1iy54i-rigjCyc-59" target="aCpGBL1iy54i-rigjCyc-68" edge="1">
          <mxGeometry relative="1" as="geometry">
            <mxPoint x="94.68965517241395" y="90" as="targetPoint" />
          </mxGeometry>
        </mxCell>
        <mxCell id="aCpGBL1iy54i-rigjCyc-59" value="Loads terrain slabs in window" style="rounded=1;whiteSpace=wrap;html=1;fontSize=12;glass=0;strokeWidth=1;shadow=0;" parent="aCpGBL1iy54i-rigjCyc-58" vertex="1">
          <mxGeometry x="30" y="45" width="130" height="30" as="geometry" />
        </mxCell>
        <mxCell id="aCpGBL1iy54i-rigjCyc-68" value="Loads geographical data in window" style="rounded=1;whiteSpace=wrap;html=1;fontSize=12;glass=0;strokeWidth=1;shadow=0;" parent="aCpGBL1iy54i-rigjCyc-58" vertex="1">
          <mxGeometry x="30" y="140" width="130" height="30" as="geometry" />
        </mxCell>
        <mxCell id="aCpGBL1iy54i-rigjCyc-75" style="edgeStyle=orthogonalEdgeStyle;rounded=0;orthogonalLoop=1;jettySize=auto;html=1;exitX=0;exitY=1;exitDx=0;exitDy=0;entryX=1;entryY=1;entryDx=0;entryDy=0;" parent="aCpGBL1iy54i-rigjCyc-38" edge="1">
          <mxGeometry relative="1" as="geometry">
            <mxPoint x="330" y="360" as="sourcePoint" />
            <mxPoint x="170" y="360" as="targetPoint" />
            <Array as="points">
              <mxPoint x="250" y="360" />
              <mxPoint x="250" y="360" />
            </Array>
          </mxGeometry>
        </mxCell>
        <mxCell id="aCpGBL1iy54i-rigjCyc-76" style="edgeStyle=orthogonalEdgeStyle;rounded=0;orthogonalLoop=1;jettySize=auto;html=1;exitX=0.5;exitY=1;exitDx=0;exitDy=0;entryX=0.488;entryY=0.005;entryDx=0;entryDy=0;entryPerimeter=0;" parent="aCpGBL1iy54i-rigjCyc-38" source="aCpGBL1iy54i-rigjCyc-39" target="aCpGBL1iy54i-rigjCyc-58" edge="1">
          <mxGeometry relative="1" as="geometry" />
        </mxCell>
        <mxCell id="aCpGBL1iy54i-rigjCyc-77" value="&lt;div&gt;Returns geographical data and terrain&lt;/div&gt;" style="rounded=1;whiteSpace=wrap;html=1;fontSize=12;glass=0;strokeWidth=1;shadow=0;" parent="aCpGBL1iy54i-rigjCyc-38" vertex="1">
          <mxGeometry x="45" y="400" width="120" height="30" as="geometry" />
        </mxCell>
        <mxCell id="aCpGBL1iy54i-rigjCyc-79" style="edgeStyle=orthogonalEdgeStyle;rounded=0;orthogonalLoop=1;jettySize=auto;html=1;entryX=0.542;entryY=0;entryDx=0;entryDy=0;entryPerimeter=0;" parent="aCpGBL1iy54i-rigjCyc-38" source="aCpGBL1iy54i-rigjCyc-58" target="aCpGBL1iy54i-rigjCyc-77" edge="1">
          <mxGeometry relative="1" as="geometry" />
        </mxCell>
        <mxCell id="aCpGBL1iy54i-rigjCyc-43" style="edgeStyle=orthogonalEdgeStyle;rounded=0;orthogonalLoop=1;jettySize=auto;html=1;exitX=1;exitY=0.5;exitDx=0;exitDy=0;entryX=0.5;entryY=0;entryDx=0;entryDy=0;" parent="WIyWlLk6GJQsqaUBKTNV-1" source="aCpGBL1iy54i-rigjCyc-37" target="aCpGBL1iy54i-rigjCyc-38" edge="1">
          <mxGeometry relative="1" as="geometry">
            <Array as="points">
              <mxPoint x="-10" y="465" />
              <mxPoint x="-10" y="400" />
              <mxPoint x="172" y="400" />
            </Array>
          </mxGeometry>
        </mxCell>
        <mxCell id="aCpGBL1iy54i-rigjCyc-44" value="&lt;div&gt;window&lt;/div&gt;" style="edgeLabel;html=1;align=center;verticalAlign=middle;resizable=0;points=[];labelBackgroundColor=default;" parent="aCpGBL1iy54i-rigjCyc-43" vertex="1" connectable="0">
          <mxGeometry x="-0.3889" relative="1" as="geometry">
            <mxPoint x="37" y="-34" as="offset" />
          </mxGeometry>
        </mxCell>
        <mxCell id="aCpGBL1iy54i-rigjCyc-50" value="Parser.ShapeFileParser.load()" style="swimlane;whiteSpace=wrap;html=1;" parent="WIyWlLk6GJQsqaUBKTNV-1" vertex="1">
          <mxGeometry x="337" y="430" width="230" height="120" as="geometry" />
        </mxCell>
        <mxCell id="aCpGBL1iy54i-rigjCyc-51" value="Returns shape" style="rounded=1;whiteSpace=wrap;html=1;fontSize=12;glass=0;strokeWidth=1;shadow=0;" parent="aCpGBL1iy54i-rigjCyc-50" vertex="1">
          <mxGeometry x="50" y="50" width="120" height="30" as="geometry" />
        </mxCell>
        <mxCell id="aCpGBL1iy54i-rigjCyc-52" style="edgeStyle=orthogonalEdgeStyle;rounded=0;orthogonalLoop=1;jettySize=auto;html=1;exitX=1;exitY=0.5;exitDx=0;exitDy=0;entryX=0.5;entryY=0;entryDx=0;entryDy=0;" parent="WIyWlLk6GJQsqaUBKTNV-1" source="aCpGBL1iy54i-rigjCyc-48" target="aCpGBL1iy54i-rigjCyc-50" edge="1">
          <mxGeometry relative="1" as="geometry">
            <Array as="points">
              <mxPoint x="317" y="495" />
              <mxPoint x="317" y="410" />
              <mxPoint x="452" y="410" />
            </Array>
          </mxGeometry>
        </mxCell>
        <mxCell id="aCpGBL1iy54i-rigjCyc-53" style="edgeStyle=orthogonalEdgeStyle;rounded=0;orthogonalLoop=1;jettySize=auto;html=1;exitX=0;exitY=1;exitDx=0;exitDy=0;entryX=1;entryY=1;entryDx=0;entryDy=0;" parent="WIyWlLk6GJQsqaUBKTNV-1" source="aCpGBL1iy54i-rigjCyc-51" target="aCpGBL1iy54i-rigjCyc-48" edge="1">
          <mxGeometry relative="1" as="geometry">
            <Array as="points">
              <mxPoint x="307" y="510" />
              <mxPoint x="307" y="510" />
            </Array>
          </mxGeometry>
        </mxCell>
        <mxCell id="aCpGBL1iy54i-rigjCyc-60" value="Parser.ASCParser.load()" style="swimlane;whiteSpace=wrap;html=1;" parent="WIyWlLk6GJQsqaUBKTNV-1" vertex="1">
          <mxGeometry x="597" y="390" width="230" height="275" as="geometry" />
        </mxCell>
        <mxCell id="aCpGBL1iy54i-rigjCyc-74" style="edgeStyle=orthogonalEdgeStyle;rounded=0;orthogonalLoop=1;jettySize=auto;html=1;entryX=0.5;entryY=0;entryDx=0;entryDy=0;" parent="aCpGBL1iy54i-rigjCyc-60" source="aCpGBL1iy54i-rigjCyc-62" target="aCpGBL1iy54i-rigjCyc-73" edge="1">
          <mxGeometry relative="1" as="geometry" />
        </mxCell>
        <mxCell id="aCpGBL1iy54i-rigjCyc-62" value="For each slab" style="swimlane;whiteSpace=wrap;html=1;" parent="aCpGBL1iy54i-rigjCyc-60" vertex="1">
          <mxGeometry x="15" y="45" width="200" height="165" as="geometry" />
        </mxCell>
        <mxCell id="aCpGBL1iy54i-rigjCyc-66" style="edgeStyle=orthogonalEdgeStyle;rounded=0;orthogonalLoop=1;jettySize=auto;html=1;exitX=0.5;exitY=1;exitDx=0;exitDy=0;entryX=0.5;entryY=0;entryDx=0;entryDy=0;" parent="aCpGBL1iy54i-rigjCyc-62" source="aCpGBL1iy54i-rigjCyc-63" target="aCpGBL1iy54i-rigjCyc-65" edge="1">
          <mxGeometry relative="1" as="geometry" />
        </mxCell>
        <mxCell id="aCpGBL1iy54i-rigjCyc-63" value="Load slab" style="rounded=1;whiteSpace=wrap;html=1;fontSize=12;glass=0;strokeWidth=1;shadow=0;" parent="aCpGBL1iy54i-rigjCyc-62" vertex="1">
          <mxGeometry x="30" y="45" width="130" height="30" as="geometry" />
        </mxCell>
        <mxCell id="aCpGBL1iy54i-rigjCyc-65" value="Stores slab data and metadata" style="rounded=1;whiteSpace=wrap;html=1;fontSize=12;glass=0;strokeWidth=1;shadow=0;" parent="aCpGBL1iy54i-rigjCyc-62" vertex="1">
          <mxGeometry x="30" y="100" width="130" height="30" as="geometry" />
        </mxCell>
        <mxCell id="aCpGBL1iy54i-rigjCyc-73" value="Returns all slabs and metadata" style="rounded=1;whiteSpace=wrap;html=1;fontSize=12;glass=0;strokeWidth=1;shadow=0;" parent="aCpGBL1iy54i-rigjCyc-60" vertex="1">
          <mxGeometry x="50" y="230" width="130" height="30" as="geometry" />
        </mxCell>
        <mxCell id="aCpGBL1iy54i-rigjCyc-64" style="edgeStyle=orthogonalEdgeStyle;rounded=0;orthogonalLoop=1;jettySize=auto;html=1;exitX=1;exitY=0.5;exitDx=0;exitDy=0;entryX=0.5;entryY=0;entryDx=0;entryDy=0;" parent="WIyWlLk6GJQsqaUBKTNV-1" source="aCpGBL1iy54i-rigjCyc-59" target="aCpGBL1iy54i-rigjCyc-60" edge="1">
          <mxGeometry relative="1" as="geometry">
            <Array as="points">
              <mxPoint x="307" y="660" />
              <mxPoint x="307" y="620" />
              <mxPoint x="577" y="620" />
              <mxPoint x="577" y="370" />
              <mxPoint x="712" y="370" />
            </Array>
          </mxGeometry>
        </mxCell>
        <mxCell id="aCpGBL1iy54i-rigjCyc-67" style="edgeStyle=orthogonalEdgeStyle;rounded=0;orthogonalLoop=1;jettySize=auto;html=1;exitX=0.515;exitY=1.043;exitDx=0;exitDy=0;entryX=1;entryY=1;entryDx=0;entryDy=0;exitPerimeter=0;" parent="WIyWlLk6GJQsqaUBKTNV-1" source="aCpGBL1iy54i-rigjCyc-73" target="aCpGBL1iy54i-rigjCyc-59" edge="1">
          <mxGeometry relative="1" as="geometry">
            <Array as="points">
              <mxPoint x="714" y="675" />
            </Array>
          </mxGeometry>
        </mxCell>
        <mxCell id="aCpGBL1iy54i-rigjCyc-70" value="Parser.ShapeFileParser.load()" style="swimlane;whiteSpace=wrap;html=1;" parent="WIyWlLk6GJQsqaUBKTNV-1" vertex="1">
          <mxGeometry x="337" y="690" width="230" height="120" as="geometry" />
        </mxCell>
        <mxCell id="aCpGBL1iy54i-rigjCyc-71" value="Returns shape" style="rounded=1;whiteSpace=wrap;html=1;fontSize=12;glass=0;strokeWidth=1;shadow=0;" parent="aCpGBL1iy54i-rigjCyc-70" vertex="1">
          <mxGeometry x="50" y="50" width="120" height="30" as="geometry" />
        </mxCell>
        <mxCell id="aCpGBL1iy54i-rigjCyc-72" style="edgeStyle=orthogonalEdgeStyle;rounded=0;orthogonalLoop=1;jettySize=auto;html=1;exitX=1;exitY=0.5;exitDx=0;exitDy=0;entryX=0.5;entryY=0;entryDx=0;entryDy=0;" parent="WIyWlLk6GJQsqaUBKTNV-1" source="aCpGBL1iy54i-rigjCyc-68" target="aCpGBL1iy54i-rigjCyc-70" edge="1">
          <mxGeometry relative="1" as="geometry">
            <Array as="points">
              <mxPoint x="282" y="755" />
              <mxPoint x="282" y="680" />
              <mxPoint x="452" y="680" />
            </Array>
          </mxGeometry>
        </mxCell>
        <mxCell id="-xBotjiaoKr3kxe3PV_f-2" value="Preprocessor.Preprocessor.process()" style="swimlane;whiteSpace=wrap;html=1;" parent="WIyWlLk6GJQsqaUBKTNV-1" vertex="1">
          <mxGeometry x="57" y="890" width="230" height="650" as="geometry">
            <mxRectangle x="80" y="890" width="250" height="30" as="alternateBounds" />
          </mxGeometry>
        </mxCell>
        <mxCell id="-xBotjiaoKr3kxe3PV_f-3" value="Add oceans (if necessary)" style="rounded=1;whiteSpace=wrap;html=1;fontSize=12;glass=0;strokeWidth=1;shadow=0;" parent="-xBotjiaoKr3kxe3PV_f-2" vertex="1">
          <mxGeometry x="40" y="120" width="130" height="30" as="geometry" />
        </mxCell>
        <mxCell id="-xBotjiaoKr3kxe3PV_f-4" value="" style="edgeStyle=orthogonalEdgeStyle;rounded=0;orthogonalLoop=1;jettySize=auto;html=1;" parent="-xBotjiaoKr3kxe3PV_f-2" source="-xBotjiaoKr3kxe3PV_f-5" target="-xBotjiaoKr3kxe3PV_f-3" edge="1">
          <mxGeometry relative="1" as="geometry" />
        </mxCell>
        <mxCell id="-xBotjiaoKr3kxe3PV_f-5" value="Finely window geographical data" style="rounded=1;whiteSpace=wrap;html=1;fontSize=12;glass=0;strokeWidth=1;shadow=0;" parent="-xBotjiaoKr3kxe3PV_f-2" vertex="1">
          <mxGeometry x="40" y="70" width="130" height="30" as="geometry" />
        </mxCell>
        <mxCell id="-xBotjiaoKr3kxe3PV_f-11" style="edgeStyle=orthogonalEdgeStyle;rounded=0;orthogonalLoop=1;jettySize=auto;html=1;exitX=0.5;exitY=1;exitDx=0;exitDy=0;entryX=0.5;entryY=0;entryDx=0;entryDy=0;" parent="-xBotjiaoKr3kxe3PV_f-2" source="-xBotjiaoKr3kxe3PV_f-47" target="-xBotjiaoKr3kxe3PV_f-15" edge="1">
          <mxGeometry relative="1" as="geometry">
            <mxPoint x="107.59999999999991" y="190.95000000000005" as="targetPoint" />
          </mxGeometry>
        </mxCell>
        <mxCell id="-xBotjiaoKr3kxe3PV_f-15" value="Turn roads from lines to polygons and create road lanes" style="rounded=1;whiteSpace=wrap;html=1;fontSize=12;glass=0;strokeWidth=1;shadow=0;" parent="-xBotjiaoKr3kxe3PV_f-2" vertex="1">
          <mxGeometry x="40" y="240" width="130" height="60" as="geometry" />
        </mxCell>
        <mxCell id="-xBotjiaoKr3kxe3PV_f-47" value="Filter roads too smal for our interest (dirt roads ...)" style="rounded=1;whiteSpace=wrap;html=1;fontSize=12;glass=0;strokeWidth=1;shadow=0;" parent="-xBotjiaoKr3kxe3PV_f-2" vertex="1">
          <mxGeometry x="40" y="175" width="130" height="45" as="geometry" />
        </mxCell>
        <mxCell id="-xBotjiaoKr3kxe3PV_f-48" value="" style="edgeStyle=orthogonalEdgeStyle;rounded=0;orthogonalLoop=1;jettySize=auto;html=1;exitX=0.5;exitY=1;exitDx=0;exitDy=0;entryX=0.5;entryY=0;entryDx=0;entryDy=0;" parent="-xBotjiaoKr3kxe3PV_f-2" source="-xBotjiaoKr3kxe3PV_f-3" target="-xBotjiaoKr3kxe3PV_f-47" edge="1">
          <mxGeometry relative="1" as="geometry">
            <mxPoint x="185" y="1040" as="sourcePoint" />
            <mxPoint x="185" y="1130" as="targetPoint" />
          </mxGeometry>
        </mxCell>
        <mxCell id="-xBotjiaoKr3kxe3PV_f-53" style="edgeStyle=orthogonalEdgeStyle;rounded=0;orthogonalLoop=1;jettySize=auto;html=1;exitX=0.5;exitY=1;exitDx=0;exitDy=0;entryX=0.5;entryY=0;entryDx=0;entryDy=0;" parent="-xBotjiaoKr3kxe3PV_f-2" source="-xBotjiaoKr3kxe3PV_f-49" target="-xBotjiaoKr3kxe3PV_f-50" edge="1">
          <mxGeometry relative="1" as="geometry" />
        </mxCell>
        <mxCell id="-xBotjiaoKr3kxe3PV_f-49" value="Remove water, roads and buildings shapes from forests shape (avoiding overlapping)" style="rounded=1;whiteSpace=wrap;html=1;fontSize=12;glass=0;strokeWidth=1;shadow=0;" parent="-xBotjiaoKr3kxe3PV_f-2" vertex="1">
          <mxGeometry x="40" y="320" width="130" height="60" as="geometry" />
        </mxCell>
        <mxCell id="-xBotjiaoKr3kxe3PV_f-54" style="edgeStyle=orthogonalEdgeStyle;rounded=0;orthogonalLoop=1;jettySize=auto;html=1;exitX=0.5;exitY=1;exitDx=0;exitDy=0;entryX=0.5;entryY=0;entryDx=0;entryDy=0;" parent="-xBotjiaoKr3kxe3PV_f-2" source="-xBotjiaoKr3kxe3PV_f-50" target="-xBotjiaoKr3kxe3PV_f-51" edge="1">
          <mxGeometry relative="1" as="geometry" />
        </mxCell>
        <mxCell id="-xBotjiaoKr3kxe3PV_f-50" value="Separate water into &quot;still&quot; and &quot;flowing&quot;" style="rounded=1;whiteSpace=wrap;html=1;fontSize=12;glass=0;strokeWidth=1;shadow=0;" parent="-xBotjiaoKr3kxe3PV_f-2" vertex="1">
          <mxGeometry x="40" y="400" width="130" height="60" as="geometry" />
        </mxCell>
        <mxCell id="-xBotjiaoKr3kxe3PV_f-51" value="Separate buildings into &quot;normal&quot;, &quot;churches&quot;, &quot;malls&quot;, and &quot;factories&quot;" style="rounded=1;whiteSpace=wrap;html=1;fontSize=12;glass=0;strokeWidth=1;shadow=0;" parent="-xBotjiaoKr3kxe3PV_f-2" vertex="1">
          <mxGeometry x="40" y="480" width="130" height="60" as="geometry" />
        </mxCell>
        <mxCell id="-xBotjiaoKr3kxe3PV_f-52" style="edgeStyle=orthogonalEdgeStyle;rounded=0;orthogonalLoop=1;jettySize=auto;html=1;exitX=0.5;exitY=1;exitDx=0;exitDy=0;entryX=0.508;entryY=-0.062;entryDx=0;entryDy=0;entryPerimeter=0;" parent="-xBotjiaoKr3kxe3PV_f-2" source="-xBotjiaoKr3kxe3PV_f-15" target="-xBotjiaoKr3kxe3PV_f-49" edge="1">
          <mxGeometry relative="1" as="geometry" />
        </mxCell>
        <mxCell id="-xBotjiaoKr3kxe3PV_f-55" value="Returns data ready for rendering" style="rounded=1;whiteSpace=wrap;html=1;fontSize=12;glass=0;strokeWidth=1;shadow=0;" parent="-xBotjiaoKr3kxe3PV_f-2" vertex="1">
          <mxGeometry x="40" y="560" width="130" height="60" as="geometry" />
        </mxCell>
        <mxCell id="-xBotjiaoKr3kxe3PV_f-56" style="edgeStyle=orthogonalEdgeStyle;rounded=0;orthogonalLoop=1;jettySize=auto;html=1;exitX=0.5;exitY=1;exitDx=0;exitDy=0;entryX=0.5;entryY=0;entryDx=0;entryDy=0;" parent="-xBotjiaoKr3kxe3PV_f-2" source="-xBotjiaoKr3kxe3PV_f-51" target="-xBotjiaoKr3kxe3PV_f-55" edge="1">
          <mxGeometry relative="1" as="geometry" />
        </mxCell>
        <mxCell id="-xBotjiaoKr3kxe3PV_f-14" style="edgeStyle=orthogonalEdgeStyle;rounded=0;orthogonalLoop=1;jettySize=auto;html=1;exitX=1;exitY=0.5;exitDx=0;exitDy=0;entryX=0.5;entryY=0;entryDx=0;entryDy=0;" parent="WIyWlLk6GJQsqaUBKTNV-1" source="-xBotjiaoKr3kxe3PV_f-0" target="-xBotjiaoKr3kxe3PV_f-2" edge="1">
          <mxGeometry relative="1" as="geometry">
            <Array as="points">
              <mxPoint x="37" y="945" />
              <mxPoint x="37" y="880" />
              <mxPoint x="172" y="880" />
            </Array>
          </mxGeometry>
        </mxCell>
        <mxCell id="-xBotjiaoKr3kxe3PV_f-16" value="Utils.Geometry.polygonise()" style="swimlane;whiteSpace=wrap;html=1;" parent="WIyWlLk6GJQsqaUBKTNV-1" vertex="1">
          <mxGeometry x="337" y="840" width="230" height="570" as="geometry" />
        </mxCell>
        <mxCell id="-xBotjiaoKr3kxe3PV_f-29" value="For each segment of the road" style="swimlane;whiteSpace=wrap;html=1;" parent="-xBotjiaoKr3kxe3PV_f-16" vertex="1">
          <mxGeometry x="15" y="50" width="200" height="500" as="geometry" />
        </mxCell>
        <mxCell id="-xBotjiaoKr3kxe3PV_f-30" style="edgeStyle=orthogonalEdgeStyle;rounded=0;orthogonalLoop=1;jettySize=auto;html=1;exitX=0.5;exitY=1;exitDx=0;exitDy=0;entryX=0.5;entryY=0;entryDx=0;entryDy=0;" parent="-xBotjiaoKr3kxe3PV_f-29" source="-xBotjiaoKr3kxe3PV_f-31" target="-xBotjiaoKr3kxe3PV_f-37" edge="1">
          <mxGeometry relative="1" as="geometry">
            <mxPoint x="95" y="140" as="targetPoint" />
          </mxGeometry>
        </mxCell>
        <mxCell id="-xBotjiaoKr3kxe3PV_f-31" value="Translate it perpendiculary to the segment to create a rectangle" style="rounded=1;whiteSpace=wrap;html=1;fontSize=12;glass=0;strokeWidth=1;shadow=0;" parent="-xBotjiaoKr3kxe3PV_f-29" vertex="1">
          <mxGeometry x="30" y="45" width="130" height="55" as="geometry" />
        </mxCell>
        <mxCell id="-xBotjiaoKr3kxe3PV_f-33" value="For each lane on the road" style="swimlane;whiteSpace=wrap;html=1;" parent="-xBotjiaoKr3kxe3PV_f-29" vertex="1">
          <mxGeometry x="25" y="240" width="155" height="180" as="geometry" />
        </mxCell>
        <mxCell id="-xBotjiaoKr3kxe3PV_f-42" style="edgeStyle=orthogonalEdgeStyle;rounded=0;orthogonalLoop=1;jettySize=auto;html=1;exitX=0.5;exitY=1;exitDx=0;exitDy=0;entryX=0.5;entryY=0;entryDx=0;entryDy=0;" parent="-xBotjiaoKr3kxe3PV_f-33" source="-xBotjiaoKr3kxe3PV_f-35" target="-xBotjiaoKr3kxe3PV_f-41" edge="1">
          <mxGeometry relative="1" as="geometry" />
        </mxCell>
        <mxCell id="-xBotjiaoKr3kxe3PV_f-35" value="Translate the segment perpendiculary to the segment to create a lane segment" style="rounded=1;whiteSpace=wrap;html=1;fontSize=12;glass=0;strokeWidth=1;shadow=0;" parent="-xBotjiaoKr3kxe3PV_f-33" vertex="1">
          <mxGeometry x="7.5" y="39" width="130" height="55" as="geometry" />
        </mxCell>
        <mxCell id="-xBotjiaoKr3kxe3PV_f-41" value="If not the first segment, fuse it with the previous segments" style="rounded=1;whiteSpace=wrap;html=1;fontSize=12;glass=0;strokeWidth=1;shadow=0;" parent="-xBotjiaoKr3kxe3PV_f-33" vertex="1">
          <mxGeometry x="12.5" y="105" width="130" height="55" as="geometry" />
        </mxCell>
        <mxCell id="-xBotjiaoKr3kxe3PV_f-37" value="If not the first segment, fuse it with the previous segments" style="rounded=1;whiteSpace=wrap;html=1;fontSize=12;glass=0;strokeWidth=1;shadow=0;" parent="-xBotjiaoKr3kxe3PV_f-29" vertex="1">
          <mxGeometry x="35" y="120" width="130" height="55" as="geometry" />
        </mxCell>
        <mxCell id="-xBotjiaoKr3kxe3PV_f-40" style="edgeStyle=orthogonalEdgeStyle;rounded=0;orthogonalLoop=1;jettySize=auto;html=1;exitX=0.5;exitY=1;exitDx=0;exitDy=0;entryX=0.468;entryY=-0.004;entryDx=0;entryDy=0;entryPerimeter=0;" parent="-xBotjiaoKr3kxe3PV_f-29" source="-xBotjiaoKr3kxe3PV_f-37" target="-xBotjiaoKr3kxe3PV_f-33" edge="1">
          <mxGeometry relative="1" as="geometry" />
        </mxCell>
        <mxCell id="-xBotjiaoKr3kxe3PV_f-45" value="Returns lanes and road polygon" style="rounded=1;whiteSpace=wrap;html=1;fontSize=12;glass=0;strokeWidth=1;shadow=0;" parent="-xBotjiaoKr3kxe3PV_f-29" vertex="1">
          <mxGeometry x="39" y="430" width="130" height="55" as="geometry" />
        </mxCell>
        <mxCell id="-xBotjiaoKr3kxe3PV_f-44" style="edgeStyle=orthogonalEdgeStyle;rounded=0;orthogonalLoop=1;jettySize=auto;html=1;exitX=1;exitY=0.5;exitDx=0;exitDy=0;entryX=0.5;entryY=0;entryDx=0;entryDy=0;" parent="WIyWlLk6GJQsqaUBKTNV-1" source="-xBotjiaoKr3kxe3PV_f-15" target="-xBotjiaoKr3kxe3PV_f-16" edge="1">
          <mxGeometry relative="1" as="geometry">
            <Array as="points">
              <mxPoint x="317" y="1160" />
              <mxPoint x="317" y="820" />
              <mxPoint x="452" y="820" />
            </Array>
          </mxGeometry>
        </mxCell>
        <mxCell id="-xBotjiaoKr3kxe3PV_f-46" style="edgeStyle=orthogonalEdgeStyle;rounded=0;orthogonalLoop=1;jettySize=auto;html=1;exitX=0.5;exitY=1;exitDx=0;exitDy=0;entryX=1;entryY=1;entryDx=0;entryDy=0;" parent="WIyWlLk6GJQsqaUBKTNV-1" source="-xBotjiaoKr3kxe3PV_f-45" target="-xBotjiaoKr3kxe3PV_f-15" edge="1">
          <mxGeometry relative="1" as="geometry">
            <Array as="points">
              <mxPoint x="456" y="1395" />
              <mxPoint x="307" y="1395" />
              <mxPoint x="307" y="1190" />
            </Array>
          </mxGeometry>
        </mxCell>
        <mxCell id="-xBotjiaoKr3kxe3PV_f-57" style="edgeStyle=orthogonalEdgeStyle;rounded=0;orthogonalLoop=1;jettySize=auto;html=1;exitX=0.5;exitY=1;exitDx=0;exitDy=0;entryX=1;entryY=1;entryDx=0;entryDy=0;" parent="WIyWlLk6GJQsqaUBKTNV-1" source="-xBotjiaoKr3kxe3PV_f-55" target="-xBotjiaoKr3kxe3PV_f-0" edge="1">
          <mxGeometry relative="1" as="geometry">
            <Array as="points">
              <mxPoint x="162" y="1530" />
              <mxPoint x="37" y="1530" />
              <mxPoint x="37" y="950" />
            </Array>
          </mxGeometry>
        </mxCell>
        <mxCell id="ZOiGhnDHxsyYqKYFNeiI-22" style="edgeStyle=orthogonalEdgeStyle;rounded=0;orthogonalLoop=1;jettySize=auto;html=1;entryX=1;entryY=1;entryDx=0;entryDy=0;" edge="1" parent="WIyWlLk6GJQsqaUBKTNV-1">
          <mxGeometry relative="1" as="geometry">
            <mxPoint x="-70" y="2030" as="sourcePoint" />
            <mxPoint x="-480" y="1906" as="targetPoint" />
            <Array as="points">
              <mxPoint x="-70" y="2036" />
              <mxPoint x="-240" y="2036" />
              <mxPoint x="-240" y="1906" />
            </Array>
          </mxGeometry>
        </mxCell>
        <mxCell id="-xBotjiaoKr3kxe3PV_f-61" value="Manager.RenderManager.&lt;br&gt;RenderManager.draw_flood_interactors()" style="swimlane;whiteSpace=wrap;html=1;startSize=30;" parent="WIyWlLk6GJQsqaUBKTNV-1" vertex="1">
          <mxGeometry x="-190" y="1840" width="240" height="190" as="geometry">
            <mxRectangle x="80" y="890" width="250" height="30" as="alternateBounds" />
          </mxGeometry>
        </mxCell>
        <mxCell id="-xBotjiaoKr3kxe3PV_f-62" value="Render flowing water and oceans" style="rounded=1;whiteSpace=wrap;html=1;fontSize=12;glass=0;strokeWidth=1;shadow=0;" parent="-xBotjiaoKr3kxe3PV_f-61" vertex="1">
          <mxGeometry x="40" y="120" width="130" height="30" as="geometry" />
        </mxCell>
        <mxCell id="-xBotjiaoKr3kxe3PV_f-63" value="" style="edgeStyle=orthogonalEdgeStyle;rounded=0;orthogonalLoop=1;jettySize=auto;html=1;" parent="-xBotjiaoKr3kxe3PV_f-61" source="-xBotjiaoKr3kxe3PV_f-64" target="-xBotjiaoKr3kxe3PV_f-62" edge="1">
          <mxGeometry relative="1" as="geometry" />
        </mxCell>
        <mxCell id="-xBotjiaoKr3kxe3PV_f-64" value="Render terrain" style="rounded=1;whiteSpace=wrap;html=1;fontSize=12;glass=0;strokeWidth=1;shadow=0;" parent="-xBotjiaoKr3kxe3PV_f-61" vertex="1">
          <mxGeometry x="40" y="70" width="130" height="30" as="geometry" />
        </mxCell>
        <mxCell id="-xBotjiaoKr3kxe3PV_f-81" value="&lt;div&gt;main:render&lt;/div&gt;" style="swimlane;whiteSpace=wrap;html=1;fillColor=#1ba1e2;fontColor=#ffffff;strokeColor=#006EAF;" parent="WIyWlLk6GJQsqaUBKTNV-1" vertex="1">
          <mxGeometry x="-770" y="1810" width="470" height="2090" as="geometry" />
        </mxCell>
        <mxCell id="ZOiGhnDHxsyYqKYFNeiI-21" style="edgeStyle=orthogonalEdgeStyle;rounded=0;orthogonalLoop=1;jettySize=auto;html=1;exitX=0.5;exitY=1;exitDx=0;exitDy=0;entryX=0.5;entryY=0;entryDx=0;entryDy=0;" edge="1" parent="-xBotjiaoKr3kxe3PV_f-81" source="-xBotjiaoKr3kxe3PV_f-93" target="HZblXPEE4JgyCaYX8dqI-10">
          <mxGeometry relative="1" as="geometry" />
        </mxCell>
        <mxCell id="-xBotjiaoKr3kxe3PV_f-93" value="&lt;div&gt;Draw flood interactors&lt;br&gt;&lt;/div&gt;" style="whiteSpace=wrap;html=1;rounded=1;glass=0;strokeWidth=1;shadow=0;" parent="-xBotjiaoKr3kxe3PV_f-81" vertex="1">
          <mxGeometry x="170" y="70" width="120" height="30" as="geometry" />
        </mxCell>
        <mxCell id="HZblXPEE4JgyCaYX8dqI-12" style="edgeStyle=orthogonalEdgeStyle;rounded=0;orthogonalLoop=1;jettySize=auto;html=1;exitX=1;exitY=0.5;exitDx=0;exitDy=0;" parent="-xBotjiaoKr3kxe3PV_f-81" source="HZblXPEE4JgyCaYX8dqI-10" target="HZblXPEE4JgyCaYX8dqI-11" edge="1">
          <mxGeometry relative="1" as="geometry" />
        </mxCell>
        <mxCell id="HZblXPEE4JgyCaYX8dqI-13" value="No" style="edgeLabel;html=1;align=center;verticalAlign=middle;resizable=0;points=[];" parent="HZblXPEE4JgyCaYX8dqI-12" vertex="1" connectable="0">
          <mxGeometry x="-0.4208" y="1" relative="1" as="geometry">
            <mxPoint as="offset" />
          </mxGeometry>
        </mxCell>
        <mxCell id="HZblXPEE4JgyCaYX8dqI-10" value="flood ?" style="rhombus;whiteSpace=wrap;html=1;" parent="-xBotjiaoKr3kxe3PV_f-81" vertex="1">
          <mxGeometry x="190" y="170" width="80" height="80" as="geometry" />
        </mxCell>
        <mxCell id="HZblXPEE4JgyCaYX8dqI-11" value="&lt;div&gt;Beautify whole scene&lt;br&gt;&lt;/div&gt;" style="whiteSpace=wrap;html=1;rounded=1;glass=0;strokeWidth=1;shadow=0;" parent="-xBotjiaoKr3kxe3PV_f-81" vertex="1">
          <mxGeometry x="310" y="270" width="120" height="30" as="geometry" />
        </mxCell>
        <mxCell id="HZblXPEE4JgyCaYX8dqI-15" style="edgeStyle=orthogonalEdgeStyle;rounded=0;orthogonalLoop=1;jettySize=auto;html=1;exitX=0.5;exitY=1;exitDx=0;exitDy=0;entryX=0.5;entryY=0;entryDx=0;entryDy=0;" parent="-xBotjiaoKr3kxe3PV_f-81" source="HZblXPEE4JgyCaYX8dqI-10" target="SpBfz0hAXg_JxDmAozGQ-12" edge="1">
          <mxGeometry relative="1" as="geometry" />
        </mxCell>
        <mxCell id="HZblXPEE4JgyCaYX8dqI-16" value="Yes" style="edgeLabel;html=1;align=center;verticalAlign=middle;resizable=0;points=[];" parent="HZblXPEE4JgyCaYX8dqI-15" vertex="1" connectable="0">
          <mxGeometry x="-0.363" y="1" relative="1" as="geometry">
            <mxPoint as="offset" />
          </mxGeometry>
        </mxCell>
        <mxCell id="ZOiGhnDHxsyYqKYFNeiI-13" style="edgeStyle=orthogonalEdgeStyle;rounded=0;orthogonalLoop=1;jettySize=auto;html=1;exitX=0.5;exitY=1;exitDx=0;exitDy=0;entryX=0.5;entryY=0;entryDx=0;entryDy=0;" edge="1" parent="-xBotjiaoKr3kxe3PV_f-81" source="SpBfz0hAXg_JxDmAozGQ-12" target="ZOiGhnDHxsyYqKYFNeiI-1">
          <mxGeometry relative="1" as="geometry" />
        </mxCell>
        <mxCell id="SpBfz0hAXg_JxDmAozGQ-12" value="&lt;div&gt;Generate height map&lt;br&gt;&lt;/div&gt;" style="whiteSpace=wrap;html=1;rounded=1;glass=0;strokeWidth=1;shadow=0;" parent="-xBotjiaoKr3kxe3PV_f-81" vertex="1">
          <mxGeometry x="172.5" y="350" width="115" height="30" as="geometry" />
        </mxCell>
        <mxCell id="HZblXPEE4JgyCaYX8dqI-23" style="edgeStyle=orthogonalEdgeStyle;rounded=0;orthogonalLoop=1;jettySize=auto;html=1;exitX=0.5;exitY=1;exitDx=0;exitDy=0;entryX=0.5;entryY=0;entryDx=0;entryDy=0;" parent="-xBotjiaoKr3kxe3PV_f-81" source="HZblXPEE4JgyCaYX8dqI-14" target="HZblXPEE4JgyCaYX8dqI-44" edge="1">
          <mxGeometry relative="1" as="geometry" />
        </mxCell>
        <mxCell id="HZblXPEE4JgyCaYX8dqI-14" value="&lt;div&gt;Calculate flood&lt;br&gt;&lt;/div&gt;" style="whiteSpace=wrap;html=1;rounded=1;glass=0;strokeWidth=1;shadow=0;" parent="-xBotjiaoKr3kxe3PV_f-81" vertex="1">
          <mxGeometry x="170" y="726" width="115" height="30" as="geometry" />
        </mxCell>
        <mxCell id="HZblXPEE4JgyCaYX8dqI-22" value="render ?" style="rhombus;whiteSpace=wrap;html=1;" parent="-xBotjiaoKr3kxe3PV_f-81" vertex="1">
          <mxGeometry x="187.5" y="871" width="80" height="80" as="geometry" />
        </mxCell>
        <mxCell id="HZblXPEE4JgyCaYX8dqI-45" style="edgeStyle=orthogonalEdgeStyle;rounded=0;orthogonalLoop=1;jettySize=auto;html=1;exitX=0.5;exitY=1;exitDx=0;exitDy=0;" parent="-xBotjiaoKr3kxe3PV_f-81" source="HZblXPEE4JgyCaYX8dqI-44" target="HZblXPEE4JgyCaYX8dqI-22" edge="1">
          <mxGeometry relative="1" as="geometry">
            <mxPoint x="229.5" y="901" as="targetPoint" />
          </mxGeometry>
        </mxCell>
        <mxCell id="HZblXPEE4JgyCaYX8dqI-44" value="&lt;div&gt;Render flood&lt;br&gt;&lt;/div&gt;" style="whiteSpace=wrap;html=1;rounded=1;glass=0;strokeWidth=1;shadow=0;" parent="-xBotjiaoKr3kxe3PV_f-81" vertex="1">
          <mxGeometry x="170" y="806" width="115" height="30" as="geometry" />
        </mxCell>
        <mxCell id="HZblXPEE4JgyCaYX8dqI-47" value="" style="edgeStyle=orthogonalEdgeStyle;rounded=0;orthogonalLoop=1;jettySize=auto;html=1;exitX=1;exitY=0.5;exitDx=0;exitDy=0;entryX=0.5;entryY=0;entryDx=0;entryDy=0;" parent="-xBotjiaoKr3kxe3PV_f-81" source="HZblXPEE4JgyCaYX8dqI-22" target="HZblXPEE4JgyCaYX8dqI-38" edge="1">
          <mxGeometry relative="1" as="geometry">
            <mxPoint x="1332" y="951" as="sourcePoint" />
            <mxPoint x="1432" y="1046" as="targetPoint" />
          </mxGeometry>
        </mxCell>
        <mxCell id="HZblXPEE4JgyCaYX8dqI-48" value="No" style="edgeLabel;html=1;align=center;verticalAlign=middle;resizable=0;points=[];" parent="HZblXPEE4JgyCaYX8dqI-47" vertex="1" connectable="0">
          <mxGeometry x="-0.4976" relative="1" as="geometry">
            <mxPoint as="offset" />
          </mxGeometry>
        </mxCell>
        <mxCell id="SpBfz0hAXg_JxDmAozGQ-10" style="edgeStyle=orthogonalEdgeStyle;rounded=0;orthogonalLoop=1;jettySize=auto;html=1;exitX=0.5;exitY=1;exitDx=0;exitDy=0;entryX=0.5;entryY=0;entryDx=0;entryDy=0;" parent="-xBotjiaoKr3kxe3PV_f-81" source="HZblXPEE4JgyCaYX8dqI-22" target="HZblXPEE4JgyCaYX8dqI-41" edge="1">
          <mxGeometry relative="1" as="geometry">
            <mxPoint x="229.5" y="1063.0000000000002" as="sourcePoint" />
          </mxGeometry>
        </mxCell>
        <mxCell id="HZblXPEE4JgyCaYX8dqI-37" value="&lt;div&gt;Calculate camera positions&lt;br&gt;&lt;/div&gt;" style="whiteSpace=wrap;html=1;rounded=1;glass=0;strokeWidth=1;shadow=0;" parent="-xBotjiaoKr3kxe3PV_f-81" vertex="1">
          <mxGeometry x="174.5" y="1518" width="120" height="30" as="geometry" />
        </mxCell>
        <mxCell id="SpBfz0hAXg_JxDmAozGQ-25" style="edgeStyle=orthogonalEdgeStyle;rounded=0;orthogonalLoop=1;jettySize=auto;html=1;exitX=0.5;exitY=1;exitDx=0;exitDy=0;" parent="-xBotjiaoKr3kxe3PV_f-81" source="HZblXPEE4JgyCaYX8dqI-38" edge="1">
          <mxGeometry relative="1" as="geometry">
            <mxPoint x="381.8888888888887" y="1088" as="targetPoint" />
          </mxGeometry>
        </mxCell>
        <mxCell id="HZblXPEE4JgyCaYX8dqI-38" value="&lt;div&gt;Setup rendering&lt;br&gt;&lt;/div&gt;" style="whiteSpace=wrap;html=1;rounded=1;glass=0;strokeWidth=1;shadow=0;" parent="-xBotjiaoKr3kxe3PV_f-81" vertex="1">
          <mxGeometry x="322" y="1048" width="120" height="30" as="geometry" />
        </mxCell>
        <mxCell id="HZblXPEE4JgyCaYX8dqI-41" value="&lt;div&gt;Setup rendering&lt;br&gt;&lt;/div&gt;" style="whiteSpace=wrap;html=1;rounded=1;glass=0;strokeWidth=1;shadow=0;" parent="-xBotjiaoKr3kxe3PV_f-81" vertex="1">
          <mxGeometry x="167.5" y="1448" width="120" height="30" as="geometry" />
        </mxCell>
        <mxCell id="HZblXPEE4JgyCaYX8dqI-50" style="edgeStyle=orthogonalEdgeStyle;rounded=0;orthogonalLoop=1;jettySize=auto;html=1;exitX=0.5;exitY=1;exitDx=0;exitDy=0;entryX=0.46;entryY=-0.036;entryDx=0;entryDy=0;entryPerimeter=0;" parent="-xBotjiaoKr3kxe3PV_f-81" source="HZblXPEE4JgyCaYX8dqI-41" target="HZblXPEE4JgyCaYX8dqI-37" edge="1">
          <mxGeometry relative="1" as="geometry" />
        </mxCell>
        <mxCell id="HZblXPEE4JgyCaYX8dqI-51" value="for each camera position" style="swimlane;whiteSpace=wrap;html=1;startSize=30;" parent="-xBotjiaoKr3kxe3PV_f-81" vertex="1">
          <mxGeometry x="122" y="1597" width="190" height="341" as="geometry">
            <mxRectangle x="80" y="890" width="250" height="30" as="alternateBounds" />
          </mxGeometry>
        </mxCell>
        <mxCell id="HZblXPEE4JgyCaYX8dqI-61" style="edgeStyle=orthogonalEdgeStyle;rounded=0;orthogonalLoop=1;jettySize=auto;html=1;exitX=0.5;exitY=1;exitDx=0;exitDy=0;entryX=0.5;entryY=0;entryDx=0;entryDy=0;" parent="HZblXPEE4JgyCaYX8dqI-51" source="HZblXPEE4JgyCaYX8dqI-55" target="HZblXPEE4JgyCaYX8dqI-56" edge="1">
          <mxGeometry relative="1" as="geometry" />
        </mxCell>
        <mxCell id="HZblXPEE4JgyCaYX8dqI-55" value="Beautify camera zone" style="rounded=1;whiteSpace=wrap;html=1;fontSize=12;glass=0;strokeWidth=1;shadow=0;" parent="HZblXPEE4JgyCaYX8dqI-51" vertex="1">
          <mxGeometry x="30" y="121" width="130" height="30" as="geometry" />
        </mxCell>
        <mxCell id="HZblXPEE4JgyCaYX8dqI-56" value="Render image" style="rounded=1;whiteSpace=wrap;html=1;fontSize=12;glass=0;strokeWidth=1;shadow=0;" parent="HZblXPEE4JgyCaYX8dqI-51" vertex="1">
          <mxGeometry x="30" y="171" width="130" height="30" as="geometry" />
        </mxCell>
        <mxCell id="HZblXPEE4JgyCaYX8dqI-58" value="Move camera" style="rounded=1;whiteSpace=wrap;html=1;fontSize=12;glass=0;strokeWidth=1;shadow=0;" parent="HZblXPEE4JgyCaYX8dqI-51" vertex="1">
          <mxGeometry x="30" y="71" width="130" height="30" as="geometry" />
        </mxCell>
        <mxCell id="HZblXPEE4JgyCaYX8dqI-59" value="Erase camera zone" style="rounded=1;whiteSpace=wrap;html=1;fontSize=12;glass=0;strokeWidth=1;shadow=0;" parent="HZblXPEE4JgyCaYX8dqI-51" vertex="1">
          <mxGeometry x="30" y="221" width="130" height="30" as="geometry" />
        </mxCell>
        <mxCell id="HZblXPEE4JgyCaYX8dqI-60" style="edgeStyle=orthogonalEdgeStyle;rounded=0;orthogonalLoop=1;jettySize=auto;html=1;exitX=0.5;exitY=1;exitDx=0;exitDy=0;entryX=0.5;entryY=0;entryDx=0;entryDy=0;" parent="HZblXPEE4JgyCaYX8dqI-51" source="HZblXPEE4JgyCaYX8dqI-58" target="HZblXPEE4JgyCaYX8dqI-55" edge="1">
          <mxGeometry relative="1" as="geometry">
            <mxPoint x="15" y="21" as="targetPoint" />
          </mxGeometry>
        </mxCell>
        <mxCell id="HZblXPEE4JgyCaYX8dqI-62" style="edgeStyle=orthogonalEdgeStyle;rounded=0;orthogonalLoop=1;jettySize=auto;html=1;exitX=0.5;exitY=1;exitDx=0;exitDy=0;entryX=0.5;entryY=0;entryDx=0;entryDy=0;" parent="HZblXPEE4JgyCaYX8dqI-51" source="HZblXPEE4JgyCaYX8dqI-56" target="HZblXPEE4JgyCaYX8dqI-59" edge="1">
          <mxGeometry relative="1" as="geometry" />
        </mxCell>
        <mxCell id="HZblXPEE4JgyCaYX8dqI-54" style="edgeStyle=orthogonalEdgeStyle;rounded=0;orthogonalLoop=1;jettySize=auto;html=1;exitX=0.5;exitY=1;exitDx=0;exitDy=0;entryX=0.465;entryY=-0.017;entryDx=0;entryDy=0;entryPerimeter=0;" parent="-xBotjiaoKr3kxe3PV_f-81" source="HZblXPEE4JgyCaYX8dqI-37" target="HZblXPEE4JgyCaYX8dqI-51" edge="1">
          <mxGeometry relative="1" as="geometry" />
        </mxCell>
        <mxCell id="SpBfz0hAXg_JxDmAozGQ-26" style="edgeStyle=orthogonalEdgeStyle;rounded=0;orthogonalLoop=1;jettySize=auto;html=1;exitX=0.5;exitY=1;exitDx=0;exitDy=0;" parent="-xBotjiaoKr3kxe3PV_f-81" source="HZblXPEE4JgyCaYX8dqI-63" edge="1">
          <mxGeometry relative="1" as="geometry">
            <mxPoint x="381.8888888888887" y="1148" as="targetPoint" />
          </mxGeometry>
        </mxCell>
        <mxCell id="HZblXPEE4JgyCaYX8dqI-63" value="Move camera to scene center" style="rounded=1;whiteSpace=wrap;html=1;fontSize=12;glass=0;strokeWidth=1;shadow=0;" parent="-xBotjiaoKr3kxe3PV_f-81" vertex="1">
          <mxGeometry x="317" y="1093" width="130" height="30" as="geometry" />
        </mxCell>
        <mxCell id="HZblXPEE4JgyCaYX8dqI-64" value="Render and export image" style="rounded=1;whiteSpace=wrap;html=1;fontSize=12;glass=0;strokeWidth=1;shadow=0;" parent="-xBotjiaoKr3kxe3PV_f-81" vertex="1">
          <mxGeometry x="317" y="1208" width="130" height="30" as="geometry" />
        </mxCell>
        <mxCell id="HZblXPEE4JgyCaYX8dqI-35" style="edgeStyle=orthogonalEdgeStyle;rounded=0;orthogonalLoop=1;jettySize=auto;html=1;exitX=0.5;exitY=1;exitDx=0;exitDy=0;entryX=0.5;entryY=0;entryDx=0;entryDy=0;" parent="-xBotjiaoKr3kxe3PV_f-81" source="HZblXPEE4JgyCaYX8dqI-46" target="HZblXPEE4JgyCaYX8dqI-46" edge="1">
          <mxGeometry relative="1" as="geometry" />
        </mxCell>
        <mxCell id="SpBfz0hAXg_JxDmAozGQ-27" style="edgeStyle=orthogonalEdgeStyle;rounded=0;orthogonalLoop=1;jettySize=auto;html=1;exitX=0.5;exitY=1;exitDx=0;exitDy=0;entryX=0.5;entryY=0;entryDx=0;entryDy=0;" parent="-xBotjiaoKr3kxe3PV_f-81" source="HZblXPEE4JgyCaYX8dqI-46" target="HZblXPEE4JgyCaYX8dqI-64" edge="1">
          <mxGeometry relative="1" as="geometry" />
        </mxCell>
        <mxCell id="HZblXPEE4JgyCaYX8dqI-46" value="&lt;div&gt;Beautify whole scene&lt;br&gt;&lt;/div&gt;" style="whiteSpace=wrap;html=1;rounded=1;glass=0;strokeWidth=1;shadow=0;" parent="-xBotjiaoKr3kxe3PV_f-81" vertex="1">
          <mxGeometry x="322" y="1152.96" width="120" height="30" as="geometry" />
        </mxCell>
        <mxCell id="SpBfz0hAXg_JxDmAozGQ-7" value="Manager.RenderManager.&lt;br&gt;RenderManager.beautify_zone()" style="swimlane;whiteSpace=wrap;html=1;startSize=30;fillColor=#6a00ff;fontColor=#ffffff;strokeColor=#3700CC;" parent="-xBotjiaoKr3kxe3PV_f-81" vertex="1">
          <mxGeometry x="582" y="1193" width="240" height="60" as="geometry">
            <mxRectangle x="80" y="890" width="250" height="30" as="alternateBounds" />
          </mxGeometry>
        </mxCell>
        <mxCell id="SpBfz0hAXg_JxDmAozGQ-11" style="edgeStyle=orthogonalEdgeStyle;rounded=0;orthogonalLoop=1;jettySize=auto;html=1;exitX=0.5;exitY=1;exitDx=0;exitDy=0;entryX=1;entryY=1;entryDx=0;entryDy=0;" parent="-xBotjiaoKr3kxe3PV_f-81" source="SpBfz0hAXg_JxDmAozGQ-7" target="HZblXPEE4JgyCaYX8dqI-46" edge="1">
          <mxGeometry relative="1" as="geometry">
            <Array as="points">
              <mxPoint x="702" y="1268" />
              <mxPoint x="552" y="1268" />
              <mxPoint x="552" y="1183" />
            </Array>
          </mxGeometry>
        </mxCell>
        <mxCell id="SpBfz0hAXg_JxDmAozGQ-8" style="edgeStyle=orthogonalEdgeStyle;rounded=0;orthogonalLoop=1;jettySize=auto;html=1;exitX=1;exitY=0.5;exitDx=0;exitDy=0;entryX=0.5;entryY=0;entryDx=0;entryDy=0;" parent="-xBotjiaoKr3kxe3PV_f-81" source="HZblXPEE4JgyCaYX8dqI-46" target="SpBfz0hAXg_JxDmAozGQ-7" edge="1">
          <mxGeometry relative="1" as="geometry">
            <Array as="points">
              <mxPoint x="702" y="1168" />
            </Array>
          </mxGeometry>
        </mxCell>
        <mxCell id="SpBfz0hAXg_JxDmAozGQ-5" style="edgeStyle=orthogonalEdgeStyle;rounded=0;orthogonalLoop=1;jettySize=auto;html=1;exitX=0.5;exitY=1;exitDx=0;exitDy=0;entryX=1;entryY=1;entryDx=0;entryDy=0;" parent="-xBotjiaoKr3kxe3PV_f-81" source="HZblXPEE4JgyCaYX8dqI-17" target="HZblXPEE4JgyCaYX8dqI-14" edge="1">
          <mxGeometry relative="1" as="geometry">
            <Array as="points">
              <mxPoint x="702" y="836" />
              <mxPoint x="552" y="836" />
              <mxPoint x="552" y="756" />
            </Array>
          </mxGeometry>
        </mxCell>
        <mxCell id="HZblXPEE4JgyCaYX8dqI-17" value="Processor.FloodProcessor.&lt;br&gt;FloodProcessor.flood()" style="swimlane;whiteSpace=wrap;html=1;startSize=30;fillColor=#6a00ff;fontColor=#ffffff;strokeColor=#3700CC;" parent="-xBotjiaoKr3kxe3PV_f-81" vertex="1">
          <mxGeometry x="582" y="756" width="240" height="70" as="geometry">
            <mxRectangle x="80" y="890" width="250" height="30" as="alternateBounds" />
          </mxGeometry>
        </mxCell>
        <mxCell id="HZblXPEE4JgyCaYX8dqI-21" style="edgeStyle=orthogonalEdgeStyle;rounded=0;orthogonalLoop=1;jettySize=auto;html=1;exitX=1;exitY=0.5;exitDx=0;exitDy=0;entryX=0.5;entryY=0;entryDx=0;entryDy=0;" parent="-xBotjiaoKr3kxe3PV_f-81" source="HZblXPEE4JgyCaYX8dqI-14" target="HZblXPEE4JgyCaYX8dqI-17" edge="1">
          <mxGeometry relative="1" as="geometry">
            <Array as="points">
              <mxPoint x="702" y="741" />
            </Array>
          </mxGeometry>
        </mxCell>
        <mxCell id="HZblXPEE4JgyCaYX8dqI-78" style="edgeStyle=orthogonalEdgeStyle;rounded=0;orthogonalLoop=1;jettySize=auto;html=1;exitX=0.5;exitY=1;exitDx=0;exitDy=0;entryX=1;entryY=1;entryDx=0;entryDy=0;" parent="-xBotjiaoKr3kxe3PV_f-81" source="HZblXPEE4JgyCaYX8dqI-74" target="HZblXPEE4JgyCaYX8dqI-44" edge="1">
          <mxGeometry relative="1" as="geometry">
            <Array as="points">
              <mxPoint x="702" y="926" />
              <mxPoint x="502" y="926" />
              <mxPoint x="502" y="836" />
            </Array>
          </mxGeometry>
        </mxCell>
        <mxCell id="HZblXPEE4JgyCaYX8dqI-74" value="Manager.RenderManager.&lt;br&gt;RenderManager.draw_flood()" style="swimlane;whiteSpace=wrap;html=1;startSize=30;fillColor=#6a00ff;fontColor=#ffffff;strokeColor=#3700CC;" parent="-xBotjiaoKr3kxe3PV_f-81" vertex="1">
          <mxGeometry x="582" y="856" width="240" height="60" as="geometry">
            <mxRectangle x="80" y="890" width="250" height="30" as="alternateBounds" />
          </mxGeometry>
        </mxCell>
        <mxCell id="HZblXPEE4JgyCaYX8dqI-77" style="edgeStyle=orthogonalEdgeStyle;rounded=0;orthogonalLoop=1;jettySize=auto;html=1;exitX=1;exitY=0.5;exitDx=0;exitDy=0;entryX=0.5;entryY=0;entryDx=0;entryDy=0;" parent="-xBotjiaoKr3kxe3PV_f-81" source="HZblXPEE4JgyCaYX8dqI-44" target="HZblXPEE4JgyCaYX8dqI-74" edge="1">
          <mxGeometry relative="1" as="geometry">
            <Array as="points">
              <mxPoint x="512" y="821" />
              <mxPoint x="512" y="846" />
              <mxPoint x="702" y="846" />
            </Array>
          </mxGeometry>
        </mxCell>
        <mxCell id="SpBfz0hAXg_JxDmAozGQ-19" style="edgeStyle=orthogonalEdgeStyle;rounded=0;orthogonalLoop=1;jettySize=auto;html=1;exitX=0.5;exitY=1;exitDx=0;exitDy=0;entryX=1;entryY=1;entryDx=0;entryDy=0;" parent="-xBotjiaoKr3kxe3PV_f-81" source="SpBfz0hAXg_JxDmAozGQ-17" target="HZblXPEE4JgyCaYX8dqI-38" edge="1">
          <mxGeometry relative="1" as="geometry">
            <Array as="points">
              <mxPoint x="702" y="1048" />
              <mxPoint x="522" y="1048" />
              <mxPoint x="522" y="1078" />
            </Array>
          </mxGeometry>
        </mxCell>
        <mxCell id="SpBfz0hAXg_JxDmAozGQ-17" value="Utils.Rendering.&lt;br&gt;setup_compositing_render()" style="swimlane;whiteSpace=wrap;html=1;startSize=30;fillColor=#d80073;fontColor=#ffffff;strokeColor=#A50040;" parent="-xBotjiaoKr3kxe3PV_f-81" vertex="1">
          <mxGeometry x="582" y="968" width="240" height="70" as="geometry">
            <mxRectangle x="80" y="890" width="250" height="30" as="alternateBounds" />
          </mxGeometry>
        </mxCell>
        <mxCell id="SpBfz0hAXg_JxDmAozGQ-18" style="edgeStyle=orthogonalEdgeStyle;rounded=0;orthogonalLoop=1;jettySize=auto;html=1;exitX=1;exitY=0.5;exitDx=0;exitDy=0;entryX=0.5;entryY=0;entryDx=0;entryDy=0;" parent="-xBotjiaoKr3kxe3PV_f-81" source="HZblXPEE4JgyCaYX8dqI-38" target="SpBfz0hAXg_JxDmAozGQ-17" edge="1">
          <mxGeometry relative="1" as="geometry">
            <Array as="points">
              <mxPoint x="502" y="1063" />
              <mxPoint x="502" y="948" />
              <mxPoint x="702" y="948" />
            </Array>
          </mxGeometry>
        </mxCell>
        <mxCell id="SpBfz0hAXg_JxDmAozGQ-21" style="edgeStyle=orthogonalEdgeStyle;rounded=0;orthogonalLoop=1;jettySize=auto;html=1;exitX=0.5;exitY=1;exitDx=0;exitDy=0;entryX=1;entryY=1;entryDx=0;entryDy=0;" parent="-xBotjiaoKr3kxe3PV_f-81" source="HZblXPEE4JgyCaYX8dqI-70" target="HZblXPEE4JgyCaYX8dqI-64" edge="1">
          <mxGeometry relative="1" as="geometry">
            <Array as="points">
              <mxPoint x="702" y="1378" />
              <mxPoint x="512" y="1378" />
              <mxPoint x="512" y="1238" />
            </Array>
          </mxGeometry>
        </mxCell>
        <mxCell id="HZblXPEE4JgyCaYX8dqI-70" value="Utils.Rendering.export_rendered_img()" style="swimlane;whiteSpace=wrap;html=1;startSize=30;fillColor=#008a00;fontColor=#ffffff;strokeColor=#005700;" parent="-xBotjiaoKr3kxe3PV_f-81" vertex="1">
          <mxGeometry x="582" y="1308" width="240" height="60" as="geometry">
            <mxRectangle x="80" y="890" width="250" height="30" as="alternateBounds" />
          </mxGeometry>
        </mxCell>
        <mxCell id="SpBfz0hAXg_JxDmAozGQ-24" style="edgeStyle=orthogonalEdgeStyle;rounded=0;orthogonalLoop=1;jettySize=auto;html=1;exitX=0.5;exitY=1;exitDx=0;exitDy=0;entryX=1;entryY=1;entryDx=0;entryDy=0;" parent="-xBotjiaoKr3kxe3PV_f-81" source="SpBfz0hAXg_JxDmAozGQ-22" target="HZblXPEE4JgyCaYX8dqI-41" edge="1">
          <mxGeometry relative="1" as="geometry">
            <Array as="points">
              <mxPoint x="702" y="1508" />
              <mxPoint x="512" y="1508" />
              <mxPoint x="512" y="1478" />
            </Array>
          </mxGeometry>
        </mxCell>
        <mxCell id="SpBfz0hAXg_JxDmAozGQ-22" value="Utils.Rendering.&lt;br&gt;setup_compositing_render()" style="swimlane;whiteSpace=wrap;html=1;startSize=30;fillColor=#d80073;fontColor=#ffffff;strokeColor=#A50040;" parent="-xBotjiaoKr3kxe3PV_f-81" vertex="1">
          <mxGeometry x="582" y="1418" width="240" height="70" as="geometry">
            <mxRectangle x="80" y="890" width="250" height="30" as="alternateBounds" />
          </mxGeometry>
        </mxCell>
        <mxCell id="SpBfz0hAXg_JxDmAozGQ-23" style="edgeStyle=orthogonalEdgeStyle;rounded=0;orthogonalLoop=1;jettySize=auto;html=1;exitX=1;exitY=0.5;exitDx=0;exitDy=0;entryX=0.5;entryY=0;entryDx=0;entryDy=0;" parent="-xBotjiaoKr3kxe3PV_f-81" source="HZblXPEE4JgyCaYX8dqI-41" target="SpBfz0hAXg_JxDmAozGQ-22" edge="1">
          <mxGeometry relative="1" as="geometry">
            <Array as="points">
              <mxPoint x="512" y="1463" />
              <mxPoint x="512" y="1398" />
              <mxPoint x="702" y="1398" />
            </Array>
          </mxGeometry>
        </mxCell>
        <mxCell id="HZblXPEE4JgyCaYX8dqI-66" value="Utils.Rendering.setup_camera_ortho()" style="swimlane;whiteSpace=wrap;html=1;startSize=30;fillColor=#a20025;fontColor=#ffffff;strokeColor=#6F0000;" parent="-xBotjiaoKr3kxe3PV_f-81" vertex="1">
          <mxGeometry x="582" y="1083" width="240" height="60" as="geometry">
            <mxRectangle x="80" y="890" width="250" height="30" as="alternateBounds" />
          </mxGeometry>
        </mxCell>
        <mxCell id="HZblXPEE4JgyCaYX8dqI-69" style="edgeStyle=orthogonalEdgeStyle;rounded=0;orthogonalLoop=1;jettySize=auto;html=1;exitX=1;exitY=0.5;exitDx=0;exitDy=0;entryX=0.5;entryY=0;entryDx=0;entryDy=0;" parent="-xBotjiaoKr3kxe3PV_f-81" source="HZblXPEE4JgyCaYX8dqI-63" target="HZblXPEE4JgyCaYX8dqI-66" edge="1">
          <mxGeometry relative="1" as="geometry">
            <Array as="points">
              <mxPoint x="562" y="1108" />
              <mxPoint x="562" y="1063" />
              <mxPoint x="702" y="1063" />
            </Array>
          </mxGeometry>
        </mxCell>
        <mxCell id="SpBfz0hAXg_JxDmAozGQ-20" style="edgeStyle=orthogonalEdgeStyle;rounded=0;orthogonalLoop=1;jettySize=auto;html=1;exitX=0.5;exitY=1;exitDx=0;exitDy=0;entryX=1;entryY=1;entryDx=0;entryDy=0;" parent="-xBotjiaoKr3kxe3PV_f-81" source="HZblXPEE4JgyCaYX8dqI-66" target="HZblXPEE4JgyCaYX8dqI-63" edge="1">
          <mxGeometry relative="1" as="geometry">
            <Array as="points">
              <mxPoint x="702" y="1158" />
              <mxPoint x="562" y="1158" />
              <mxPoint x="562" y="1123" />
            </Array>
          </mxGeometry>
        </mxCell>
        <mxCell id="SpBfz0hAXg_JxDmAozGQ-34" style="edgeStyle=orthogonalEdgeStyle;rounded=0;orthogonalLoop=1;jettySize=auto;html=1;exitX=0.5;exitY=1;exitDx=0;exitDy=0;entryX=1;entryY=1;entryDx=0;entryDy=0;" parent="-xBotjiaoKr3kxe3PV_f-81" source="SpBfz0hAXg_JxDmAozGQ-28" target="HZblXPEE4JgyCaYX8dqI-55" edge="1">
          <mxGeometry relative="1" as="geometry">
            <Array as="points">
              <mxPoint x="702" y="1808" />
              <mxPoint x="532" y="1808" />
              <mxPoint x="532" y="1748" />
            </Array>
          </mxGeometry>
        </mxCell>
        <mxCell id="SpBfz0hAXg_JxDmAozGQ-28" value="Manager.RenderManager.&lt;br&gt;RenderManager.beautify_zone()" style="swimlane;whiteSpace=wrap;html=1;startSize=30;fillColor=#6a00ff;fontColor=#ffffff;strokeColor=#3700CC;" parent="-xBotjiaoKr3kxe3PV_f-81" vertex="1">
          <mxGeometry x="582" y="1728" width="240" height="60" as="geometry">
            <mxRectangle x="80" y="890" width="250" height="30" as="alternateBounds" />
          </mxGeometry>
        </mxCell>
        <mxCell id="SpBfz0hAXg_JxDmAozGQ-36" style="edgeStyle=orthogonalEdgeStyle;rounded=0;orthogonalLoop=1;jettySize=auto;html=1;exitX=0.5;exitY=1;exitDx=0;exitDy=0;entryX=1;entryY=1;entryDx=0;entryDy=0;" parent="-xBotjiaoKr3kxe3PV_f-81" source="SpBfz0hAXg_JxDmAozGQ-29" target="HZblXPEE4JgyCaYX8dqI-56" edge="1">
          <mxGeometry relative="1" as="geometry">
            <Array as="points">
              <mxPoint x="702" y="1923" />
              <mxPoint x="492" y="1923" />
              <mxPoint x="492" y="1798" />
            </Array>
          </mxGeometry>
        </mxCell>
        <mxCell id="SpBfz0hAXg_JxDmAozGQ-29" value="Utils.Rendering.export_rendered_img()" style="swimlane;whiteSpace=wrap;html=1;startSize=30;fillColor=#008a00;fontColor=#ffffff;strokeColor=#005700;" parent="-xBotjiaoKr3kxe3PV_f-81" vertex="1">
          <mxGeometry x="582" y="1843" width="240" height="60" as="geometry">
            <mxRectangle x="80" y="890" width="250" height="30" as="alternateBounds" />
          </mxGeometry>
        </mxCell>
        <mxCell id="SpBfz0hAXg_JxDmAozGQ-32" style="edgeStyle=orthogonalEdgeStyle;rounded=0;orthogonalLoop=1;jettySize=auto;html=1;exitX=0.5;exitY=1;exitDx=0;exitDy=0;entryX=1;entryY=1;entryDx=0;entryDy=0;" parent="-xBotjiaoKr3kxe3PV_f-81" source="SpBfz0hAXg_JxDmAozGQ-30" target="HZblXPEE4JgyCaYX8dqI-58" edge="1">
          <mxGeometry relative="1" as="geometry">
            <Array as="points">
              <mxPoint x="702" y="1628" />
              <mxPoint x="562" y="1628" />
              <mxPoint x="562" y="1698" />
            </Array>
          </mxGeometry>
        </mxCell>
        <mxCell id="SpBfz0hAXg_JxDmAozGQ-30" value="Utils.Rendering.setup_camera_ortho()" style="swimlane;whiteSpace=wrap;html=1;startSize=30;fillColor=#a20025;fontColor=#ffffff;strokeColor=#6F0000;" parent="-xBotjiaoKr3kxe3PV_f-81" vertex="1">
          <mxGeometry x="582" y="1558" width="240" height="60" as="geometry">
            <mxRectangle x="80" y="890" width="250" height="30" as="alternateBounds" />
          </mxGeometry>
        </mxCell>
        <mxCell id="SpBfz0hAXg_JxDmAozGQ-31" style="edgeStyle=orthogonalEdgeStyle;rounded=0;orthogonalLoop=1;jettySize=auto;html=1;exitX=1;exitY=0.5;exitDx=0;exitDy=0;entryX=0.5;entryY=0;entryDx=0;entryDy=0;" parent="-xBotjiaoKr3kxe3PV_f-81" source="HZblXPEE4JgyCaYX8dqI-58" target="SpBfz0hAXg_JxDmAozGQ-30" edge="1">
          <mxGeometry relative="1" as="geometry">
            <Array as="points">
              <mxPoint x="532" y="1683" />
              <mxPoint x="532" y="1538" />
              <mxPoint x="702" y="1538" />
            </Array>
          </mxGeometry>
        </mxCell>
        <mxCell id="SpBfz0hAXg_JxDmAozGQ-33" style="edgeStyle=orthogonalEdgeStyle;rounded=0;orthogonalLoop=1;jettySize=auto;html=1;exitX=1;exitY=0.5;exitDx=0;exitDy=0;entryX=0.5;entryY=0;entryDx=0;entryDy=0;" parent="-xBotjiaoKr3kxe3PV_f-81" source="HZblXPEE4JgyCaYX8dqI-55" target="SpBfz0hAXg_JxDmAozGQ-28" edge="1">
          <mxGeometry relative="1" as="geometry">
            <Array as="points">
              <mxPoint x="432" y="1733" />
              <mxPoint x="432" y="1718" />
              <mxPoint x="702" y="1718" />
            </Array>
          </mxGeometry>
        </mxCell>
        <mxCell id="SpBfz0hAXg_JxDmAozGQ-35" style="edgeStyle=orthogonalEdgeStyle;rounded=0;orthogonalLoop=1;jettySize=auto;html=1;exitX=1;exitY=0.5;exitDx=0;exitDy=0;" parent="-xBotjiaoKr3kxe3PV_f-81" source="HZblXPEE4JgyCaYX8dqI-56" target="SpBfz0hAXg_JxDmAozGQ-29" edge="1">
          <mxGeometry relative="1" as="geometry">
            <Array as="points">
              <mxPoint x="502" y="1783" />
              <mxPoint x="502" y="1828" />
              <mxPoint x="702" y="1828" />
            </Array>
          </mxGeometry>
        </mxCell>
        <mxCell id="SpBfz0hAXg_JxDmAozGQ-39" style="edgeStyle=orthogonalEdgeStyle;rounded=0;orthogonalLoop=1;jettySize=auto;html=1;exitX=0.5;exitY=1;exitDx=0;exitDy=0;entryX=1;entryY=1;entryDx=0;entryDy=0;" parent="-xBotjiaoKr3kxe3PV_f-81" source="SpBfz0hAXg_JxDmAozGQ-37" target="HZblXPEE4JgyCaYX8dqI-59" edge="1">
          <mxGeometry relative="1" as="geometry">
            <Array as="points">
              <mxPoint x="702" y="2042" />
              <mxPoint x="452" y="2042" />
              <mxPoint x="452" y="1848" />
            </Array>
          </mxGeometry>
        </mxCell>
        <mxCell id="SpBfz0hAXg_JxDmAozGQ-37" value="Manager.RenderManager.&lt;br&gt;RenderManager.clean_zone()" style="swimlane;whiteSpace=wrap;html=1;startSize=30;fillColor=#6a00ff;fontColor=#ffffff;strokeColor=#3700CC;" parent="-xBotjiaoKr3kxe3PV_f-81" vertex="1">
          <mxGeometry x="582" y="1962" width="240" height="60" as="geometry">
            <mxRectangle x="80" y="890" width="250" height="30" as="alternateBounds" />
          </mxGeometry>
        </mxCell>
        <mxCell id="SpBfz0hAXg_JxDmAozGQ-38" style="edgeStyle=orthogonalEdgeStyle;rounded=0;orthogonalLoop=1;jettySize=auto;html=1;exitX=1;exitY=0.5;exitDx=0;exitDy=0;entryX=0.5;entryY=0;entryDx=0;entryDy=0;" parent="-xBotjiaoKr3kxe3PV_f-81" source="HZblXPEE4JgyCaYX8dqI-59" target="SpBfz0hAXg_JxDmAozGQ-37" edge="1">
          <mxGeometry relative="1" as="geometry">
            <Array as="points">
              <mxPoint x="462" y="1833" />
              <mxPoint x="462" y="1938" />
              <mxPoint x="702" y="1938" />
            </Array>
          </mxGeometry>
        </mxCell>
        <mxCell id="u-OZXYdGeHlxz3iozldh-3" style="edgeStyle=orthogonalEdgeStyle;rounded=0;orthogonalLoop=1;jettySize=auto;html=1;exitX=1;exitY=0.5;exitDx=0;exitDy=0;entryX=0.5;entryY=0;entryDx=0;entryDy=0;" parent="-xBotjiaoKr3kxe3PV_f-81" source="HZblXPEE4JgyCaYX8dqI-64" target="HZblXPEE4JgyCaYX8dqI-70" edge="1">
          <mxGeometry relative="1" as="geometry">
            <Array as="points">
              <mxPoint x="524" y="1223" />
              <mxPoint x="524" y="1288" />
              <mxPoint x="702" y="1288" />
            </Array>
          </mxGeometry>
        </mxCell>
        <mxCell id="ZOiGhnDHxsyYqKYFNeiI-0" value="Manager.FloodManager.&lt;br&gt;FloodManager.generate_height_map()" style="swimlane;whiteSpace=wrap;html=1;startSize=30;fillColor=#6a00ff;fontColor=#ffffff;strokeColor=#3700CC;" vertex="1" parent="-xBotjiaoKr3kxe3PV_f-81">
          <mxGeometry x="580" y="350" width="240" height="60" as="geometry">
            <mxRectangle x="80" y="890" width="250" height="30" as="alternateBounds" />
          </mxGeometry>
        </mxCell>
        <mxCell id="SpBfz0hAXg_JxDmAozGQ-16" style="edgeStyle=orthogonalEdgeStyle;rounded=0;orthogonalLoop=1;jettySize=auto;html=1;exitX=0.5;exitY=1;exitDx=0;exitDy=0;entryX=1;entryY=1;entryDx=0;entryDy=0;" parent="-xBotjiaoKr3kxe3PV_f-81" source="ZOiGhnDHxsyYqKYFNeiI-0" target="SpBfz0hAXg_JxDmAozGQ-12" edge="1">
          <mxGeometry relative="1" as="geometry">
            <Array as="points">
              <mxPoint x="700" y="420" />
              <mxPoint x="560" y="420" />
              <mxPoint x="560" y="380" />
            </Array>
          </mxGeometry>
        </mxCell>
        <mxCell id="SpBfz0hAXg_JxDmAozGQ-15" style="edgeStyle=orthogonalEdgeStyle;rounded=0;orthogonalLoop=1;jettySize=auto;html=1;exitX=1;exitY=0.5;exitDx=0;exitDy=0;entryX=0.5;entryY=0;entryDx=0;entryDy=0;" parent="-xBotjiaoKr3kxe3PV_f-81" source="SpBfz0hAXg_JxDmAozGQ-12" target="ZOiGhnDHxsyYqKYFNeiI-0" edge="1">
          <mxGeometry relative="1" as="geometry">
            <Array as="points">
              <mxPoint x="560" y="365" />
              <mxPoint x="560" y="330" />
              <mxPoint x="700" y="330" />
            </Array>
            <mxPoint x="289.9999999999998" y="375" as="sourcePoint" />
            <mxPoint x="1067.5" y="360" as="targetPoint" />
          </mxGeometry>
        </mxCell>
        <mxCell id="ZOiGhnDHxsyYqKYFNeiI-1" value="&lt;div&gt;Hide terrain&lt;br&gt;&lt;/div&gt;" style="whiteSpace=wrap;html=1;rounded=1;glass=0;strokeWidth=1;shadow=0;" vertex="1" parent="-xBotjiaoKr3kxe3PV_f-81">
          <mxGeometry x="173.5" y="450" width="115" height="30" as="geometry" />
        </mxCell>
        <mxCell id="ZOiGhnDHxsyYqKYFNeiI-2" value="Manager.RenderManager.&lt;br&gt;RenderManager.change_terrain_visibility()" style="swimlane;whiteSpace=wrap;html=1;startSize=30;" vertex="1" parent="-xBotjiaoKr3kxe3PV_f-81">
          <mxGeometry x="577" y="440" width="240" height="70" as="geometry">
            <mxRectangle x="80" y="890" width="250" height="30" as="alternateBounds" />
          </mxGeometry>
        </mxCell>
        <mxCell id="ZOiGhnDHxsyYqKYFNeiI-18" value="&lt;div&gt;Change terrain visibility&lt;br&gt;&lt;/div&gt;" style="whiteSpace=wrap;html=1;rounded=1;glass=0;strokeWidth=1;shadow=0;" vertex="1" parent="ZOiGhnDHxsyYqKYFNeiI-2">
          <mxGeometry x="58" y="35" width="115" height="30" as="geometry" />
        </mxCell>
        <mxCell id="ZOiGhnDHxsyYqKYFNeiI-3" style="edgeStyle=orthogonalEdgeStyle;rounded=0;orthogonalLoop=1;jettySize=auto;html=1;exitX=0.5;exitY=1;exitDx=0;exitDy=0;entryX=1;entryY=1;entryDx=0;entryDy=0;" edge="1" parent="-xBotjiaoKr3kxe3PV_f-81" source="ZOiGhnDHxsyYqKYFNeiI-2" target="ZOiGhnDHxsyYqKYFNeiI-1">
          <mxGeometry relative="1" as="geometry">
            <Array as="points">
              <mxPoint x="697" y="520" />
              <mxPoint x="557" y="520" />
              <mxPoint x="557" y="480" />
            </Array>
          </mxGeometry>
        </mxCell>
        <mxCell id="ZOiGhnDHxsyYqKYFNeiI-4" style="edgeStyle=orthogonalEdgeStyle;rounded=0;orthogonalLoop=1;jettySize=auto;html=1;exitX=1;exitY=0.5;exitDx=0;exitDy=0;entryX=0.5;entryY=0;entryDx=0;entryDy=0;" edge="1" parent="-xBotjiaoKr3kxe3PV_f-81" source="ZOiGhnDHxsyYqKYFNeiI-1" target="ZOiGhnDHxsyYqKYFNeiI-2">
          <mxGeometry relative="1" as="geometry">
            <Array as="points">
              <mxPoint x="557" y="465" />
              <mxPoint x="557" y="430" />
              <mxPoint x="697" y="430" />
            </Array>
            <mxPoint x="286.9999999999998" y="475" as="sourcePoint" />
            <mxPoint x="1064.5" y="460" as="targetPoint" />
          </mxGeometry>
        </mxCell>
        <mxCell id="ZOiGhnDHxsyYqKYFNeiI-15" style="edgeStyle=orthogonalEdgeStyle;rounded=0;orthogonalLoop=1;jettySize=auto;html=1;exitX=0.5;exitY=1;exitDx=0;exitDy=0;entryX=0.5;entryY=0;entryDx=0;entryDy=0;" edge="1" parent="-xBotjiaoKr3kxe3PV_f-81" source="ZOiGhnDHxsyYqKYFNeiI-5" target="ZOiGhnDHxsyYqKYFNeiI-9">
          <mxGeometry relative="1" as="geometry" />
        </mxCell>
        <mxCell id="ZOiGhnDHxsyYqKYFNeiI-5" value="&lt;div&gt;Generate source map&lt;br&gt;&lt;/div&gt;" style="whiteSpace=wrap;html=1;rounded=1;glass=0;strokeWidth=1;shadow=0;" vertex="1" parent="-xBotjiaoKr3kxe3PV_f-81">
          <mxGeometry x="170" y="548" width="115" height="30" as="geometry" />
        </mxCell>
        <mxCell id="ZOiGhnDHxsyYqKYFNeiI-6" value="Manager.FloodManager.&lt;br&gt;FloodManager.generate_semantic_map()" style="swimlane;whiteSpace=wrap;html=1;startSize=30;fillColor=#6a00ff;fontColor=#ffffff;strokeColor=#3700CC;" vertex="1" parent="-xBotjiaoKr3kxe3PV_f-81">
          <mxGeometry x="577.5" y="548" width="240" height="60" as="geometry">
            <mxRectangle x="80" y="890" width="250" height="30" as="alternateBounds" />
          </mxGeometry>
        </mxCell>
        <mxCell id="ZOiGhnDHxsyYqKYFNeiI-7" style="edgeStyle=orthogonalEdgeStyle;rounded=0;orthogonalLoop=1;jettySize=auto;html=1;exitX=0.5;exitY=1;exitDx=0;exitDy=0;entryX=1;entryY=1;entryDx=0;entryDy=0;" edge="1" parent="-xBotjiaoKr3kxe3PV_f-81" source="ZOiGhnDHxsyYqKYFNeiI-6" target="ZOiGhnDHxsyYqKYFNeiI-5">
          <mxGeometry relative="1" as="geometry">
            <Array as="points">
              <mxPoint x="697.5" y="618" />
              <mxPoint x="557.5" y="618" />
              <mxPoint x="557.5" y="578" />
            </Array>
          </mxGeometry>
        </mxCell>
        <mxCell id="ZOiGhnDHxsyYqKYFNeiI-8" style="edgeStyle=orthogonalEdgeStyle;rounded=0;orthogonalLoop=1;jettySize=auto;html=1;exitX=1;exitY=0.5;exitDx=0;exitDy=0;entryX=0.5;entryY=0;entryDx=0;entryDy=0;" edge="1" parent="-xBotjiaoKr3kxe3PV_f-81" source="ZOiGhnDHxsyYqKYFNeiI-5" target="ZOiGhnDHxsyYqKYFNeiI-6">
          <mxGeometry relative="1" as="geometry">
            <Array as="points">
              <mxPoint x="557.5" y="563" />
              <mxPoint x="557.5" y="528" />
              <mxPoint x="697.5" y="528" />
            </Array>
            <mxPoint x="287.4999999999998" y="573" as="sourcePoint" />
            <mxPoint x="1065" y="558" as="targetPoint" />
          </mxGeometry>
        </mxCell>
        <mxCell id="ZOiGhnDHxsyYqKYFNeiI-16" style="edgeStyle=orthogonalEdgeStyle;rounded=0;orthogonalLoop=1;jettySize=auto;html=1;exitX=0.5;exitY=1;exitDx=0;exitDy=0;entryX=0.5;entryY=0;entryDx=0;entryDy=0;" edge="1" parent="-xBotjiaoKr3kxe3PV_f-81" source="ZOiGhnDHxsyYqKYFNeiI-9" target="HZblXPEE4JgyCaYX8dqI-14">
          <mxGeometry relative="1" as="geometry" />
        </mxCell>
        <mxCell id="ZOiGhnDHxsyYqKYFNeiI-9" value="&lt;div&gt;Show terrain&lt;br&gt;&lt;/div&gt;" style="whiteSpace=wrap;html=1;rounded=1;glass=0;strokeWidth=1;shadow=0;" vertex="1" parent="-xBotjiaoKr3kxe3PV_f-81">
          <mxGeometry x="170" y="650" width="115" height="30" as="geometry" />
        </mxCell>
        <mxCell id="ZOiGhnDHxsyYqKYFNeiI-10" value="Manager.RenderManager.&lt;br&gt;RenderManager.change_terrain_visibility()" style="swimlane;whiteSpace=wrap;html=1;startSize=30;" vertex="1" parent="-xBotjiaoKr3kxe3PV_f-81">
          <mxGeometry x="579.5" y="650" width="240" height="70" as="geometry">
            <mxRectangle x="80" y="890" width="250" height="30" as="alternateBounds" />
          </mxGeometry>
        </mxCell>
        <mxCell id="ZOiGhnDHxsyYqKYFNeiI-19" value="&lt;div&gt;Change terrain visibility&lt;br&gt;&lt;/div&gt;" style="whiteSpace=wrap;html=1;rounded=1;glass=0;strokeWidth=1;shadow=0;" vertex="1" parent="ZOiGhnDHxsyYqKYFNeiI-10">
          <mxGeometry x="60" y="35" width="115" height="30" as="geometry" />
        </mxCell>
        <mxCell id="ZOiGhnDHxsyYqKYFNeiI-11" style="edgeStyle=orthogonalEdgeStyle;rounded=0;orthogonalLoop=1;jettySize=auto;html=1;exitX=0.5;exitY=1;exitDx=0;exitDy=0;entryX=1;entryY=1;entryDx=0;entryDy=0;" edge="1" parent="-xBotjiaoKr3kxe3PV_f-81" source="ZOiGhnDHxsyYqKYFNeiI-10" target="ZOiGhnDHxsyYqKYFNeiI-9">
          <mxGeometry relative="1" as="geometry">
            <Array as="points">
              <mxPoint x="700" y="730" />
              <mxPoint x="560" y="730" />
              <mxPoint x="560" y="680" />
            </Array>
          </mxGeometry>
        </mxCell>
        <mxCell id="ZOiGhnDHxsyYqKYFNeiI-12" style="edgeStyle=orthogonalEdgeStyle;rounded=0;orthogonalLoop=1;jettySize=auto;html=1;exitX=1;exitY=0.5;exitDx=0;exitDy=0;entryX=0.5;entryY=0;entryDx=0;entryDy=0;" edge="1" parent="-xBotjiaoKr3kxe3PV_f-81" source="ZOiGhnDHxsyYqKYFNeiI-9" target="ZOiGhnDHxsyYqKYFNeiI-10">
          <mxGeometry relative="1" as="geometry">
            <Array as="points">
              <mxPoint x="559.5" y="665" />
              <mxPoint x="559.5" y="630" />
              <mxPoint x="699.5" y="630" />
            </Array>
            <mxPoint x="289.4999999999998" y="675" as="sourcePoint" />
            <mxPoint x="1067" y="660" as="targetPoint" />
          </mxGeometry>
        </mxCell>
        <mxCell id="ZOiGhnDHxsyYqKYFNeiI-14" style="edgeStyle=orthogonalEdgeStyle;rounded=0;orthogonalLoop=1;jettySize=auto;html=1;exitX=0.5;exitY=1;exitDx=0;exitDy=0;entryX=0.534;entryY=-0.06;entryDx=0;entryDy=0;entryPerimeter=0;" edge="1" parent="-xBotjiaoKr3kxe3PV_f-81" source="ZOiGhnDHxsyYqKYFNeiI-1" target="ZOiGhnDHxsyYqKYFNeiI-5">
          <mxGeometry relative="1" as="geometry" />
        </mxCell>
        <mxCell id="HZblXPEE4JgyCaYX8dqI-0" style="edgeStyle=orthogonalEdgeStyle;rounded=0;orthogonalLoop=1;jettySize=auto;html=1;exitX=1;exitY=0.5;exitDx=0;exitDy=0;entryX=0.423;entryY=-0.002;entryDx=0;entryDy=0;entryPerimeter=0;" parent="WIyWlLk6GJQsqaUBKTNV-1" source="-xBotjiaoKr3kxe3PV_f-93" target="-xBotjiaoKr3kxe3PV_f-61" edge="1">
          <mxGeometry relative="1" as="geometry">
            <Array as="points">
              <mxPoint x="-260" y="1895" />
              <mxPoint x="-260" y="1820" />
              <mxPoint x="-89" y="1820" />
            </Array>
          </mxGeometry>
        </mxCell>
        <mxCell id="SpBfz0hAXg_JxDmAozGQ-1" style="edgeStyle=orthogonalEdgeStyle;rounded=0;orthogonalLoop=1;jettySize=auto;html=1;exitX=0.5;exitY=1;exitDx=0;exitDy=0;entryX=1;entryY=1;entryDx=0;entryDy=0;" parent="WIyWlLk6GJQsqaUBKTNV-1" source="HZblXPEE4JgyCaYX8dqI-1" target="-xBotjiaoKr3kxe3PV_f-64" edge="1">
          <mxGeometry relative="1" as="geometry">
            <Array as="points">
              <mxPoint x="295" y="1940" />
            </Array>
          </mxGeometry>
        </mxCell>
        <mxCell id="HZblXPEE4JgyCaYX8dqI-1" value="Renderer.TerrainRenderer.&lt;br&gt;TerrainRenderer.render()" style="swimlane;whiteSpace=wrap;html=1;startSize=30;fillColor=#6a00ff;fontColor=#ffffff;strokeColor=#3700CC;" parent="WIyWlLk6GJQsqaUBKTNV-1" vertex="1">
          <mxGeometry x="180" y="1840" width="230" height="70" as="geometry">
            <mxRectangle x="80" y="890" width="250" height="30" as="alternateBounds" />
          </mxGeometry>
        </mxCell>
        <mxCell id="HZblXPEE4JgyCaYX8dqI-5" style="edgeStyle=orthogonalEdgeStyle;rounded=0;orthogonalLoop=1;jettySize=auto;html=1;exitX=1;exitY=0.5;exitDx=0;exitDy=0;entryX=0.5;entryY=0;entryDx=0;entryDy=0;" parent="WIyWlLk6GJQsqaUBKTNV-1" source="-xBotjiaoKr3kxe3PV_f-64" target="HZblXPEE4JgyCaYX8dqI-1" edge="1">
          <mxGeometry relative="1" as="geometry">
            <Array as="points">
              <mxPoint x="130" y="1925" />
              <mxPoint x="130" y="1820" />
              <mxPoint x="295" y="1820" />
            </Array>
          </mxGeometry>
        </mxCell>
        <mxCell id="SpBfz0hAXg_JxDmAozGQ-0" style="edgeStyle=orthogonalEdgeStyle;rounded=0;orthogonalLoop=1;jettySize=auto;html=1;exitX=0.5;exitY=1;exitDx=0;exitDy=0;entryX=1;entryY=1;entryDx=0;entryDy=0;" parent="WIyWlLk6GJQsqaUBKTNV-1" source="HZblXPEE4JgyCaYX8dqI-24" target="HZblXPEE4JgyCaYX8dqI-11" edge="1">
          <mxGeometry relative="1" as="geometry">
            <Array as="points">
              <mxPoint x="-70" y="2120" />
              <mxPoint x="-240" y="2120" />
              <mxPoint x="-240" y="2110" />
            </Array>
          </mxGeometry>
        </mxCell>
        <mxCell id="HZblXPEE4JgyCaYX8dqI-24" value="Manager.RenderManager.&lt;br&gt;RenderManager.beautify_zone()" style="swimlane;whiteSpace=wrap;html=1;startSize=30;fillColor=#6a00ff;fontColor=#ffffff;strokeColor=#3700CC;" parent="WIyWlLk6GJQsqaUBKTNV-1" vertex="1">
          <mxGeometry x="-190" y="2050" width="240" height="60" as="geometry">
            <mxRectangle x="80" y="890" width="250" height="30" as="alternateBounds" />
          </mxGeometry>
        </mxCell>
        <mxCell id="HZblXPEE4JgyCaYX8dqI-28" style="edgeStyle=orthogonalEdgeStyle;rounded=0;orthogonalLoop=1;jettySize=auto;html=1;exitX=1;exitY=0.5;exitDx=0;exitDy=0;entryX=0.5;entryY=0;entryDx=0;entryDy=0;" parent="WIyWlLk6GJQsqaUBKTNV-1" source="HZblXPEE4JgyCaYX8dqI-11" target="HZblXPEE4JgyCaYX8dqI-24" edge="1">
          <mxGeometry relative="1" as="geometry">
            <Array as="points">
              <mxPoint x="-240" y="2095" />
              <mxPoint x="-240" y="2040" />
              <mxPoint x="-70" y="2040" />
            </Array>
          </mxGeometry>
        </mxCell>
        <mxCell id="SpBfz0hAXg_JxDmAozGQ-4" style="edgeStyle=orthogonalEdgeStyle;rounded=0;orthogonalLoop=1;jettySize=auto;html=1;exitX=0.5;exitY=1;exitDx=0;exitDy=0;entryX=1;entryY=1;entryDx=0;entryDy=0;" parent="WIyWlLk6GJQsqaUBKTNV-1" source="SpBfz0hAXg_JxDmAozGQ-2" target="-xBotjiaoKr3kxe3PV_f-62" edge="1">
          <mxGeometry relative="1" as="geometry">
            <Array as="points">
              <mxPoint x="285" y="2050" />
              <mxPoint x="120" y="2050" />
              <mxPoint x="120" y="1990" />
            </Array>
          </mxGeometry>
        </mxCell>
        <mxCell id="SpBfz0hAXg_JxDmAozGQ-2" value="Renderer.WaterRenderer.&lt;br&gt;FlowingWaterRenderer.render()" style="swimlane;whiteSpace=wrap;html=1;startSize=30;" parent="WIyWlLk6GJQsqaUBKTNV-1" vertex="1">
          <mxGeometry x="170" y="1970" width="230" height="70" as="geometry">
            <mxRectangle x="80" y="890" width="250" height="30" as="alternateBounds" />
          </mxGeometry>
        </mxCell>
        <mxCell id="SpBfz0hAXg_JxDmAozGQ-3" style="edgeStyle=orthogonalEdgeStyle;rounded=0;orthogonalLoop=1;jettySize=auto;html=1;exitX=1;exitY=0.5;exitDx=0;exitDy=0;entryX=0.5;entryY=0;entryDx=0;entryDy=0;" parent="WIyWlLk6GJQsqaUBKTNV-1" source="-xBotjiaoKr3kxe3PV_f-62" target="SpBfz0hAXg_JxDmAozGQ-2" edge="1">
          <mxGeometry relative="1" as="geometry">
            <Array as="points">
              <mxPoint x="120" y="1975" />
              <mxPoint x="120" y="1950" />
              <mxPoint x="285" y="1950" />
            </Array>
          </mxGeometry>
        </mxCell>
        <mxCell id="u-OZXYdGeHlxz3iozldh-0" style="edgeStyle=orthogonalEdgeStyle;rounded=0;orthogonalLoop=1;jettySize=auto;html=1;exitX=0.5;exitY=1;exitDx=0;exitDy=0;entryX=1;entryY=1;entryDx=0;entryDy=0;" parent="WIyWlLk6GJQsqaUBKTNV-1" source="u-OZXYdGeHlxz3iozldh-1" edge="1">
          <mxGeometry relative="1" as="geometry">
            <Array as="points">
              <mxPoint x="585" y="2060" />
              <mxPoint x="450" y="2060" />
              <mxPoint x="450" y="2040" />
            </Array>
            <mxPoint x="400" y="2040" as="targetPoint" />
          </mxGeometry>
        </mxCell>
        <mxCell id="u-OZXYdGeHlxz3iozldh-1" value="Renderer.BaseRender.&lt;br&gt;BaseRenderer.render()" style="swimlane;whiteSpace=wrap;html=1;startSize=30;fillColor=#6a00ff;fontColor=#ffffff;strokeColor=#3700CC;" parent="WIyWlLk6GJQsqaUBKTNV-1" vertex="1">
          <mxGeometry x="470" y="1960" width="230" height="80" as="geometry" />
        </mxCell>
        <mxCell id="u-OZXYdGeHlxz3iozldh-2" style="edgeStyle=orthogonalEdgeStyle;rounded=0;orthogonalLoop=1;jettySize=auto;html=1;exitX=1;exitY=0.75;exitDx=0;exitDy=0;entryX=0.5;entryY=0;entryDx=0;entryDy=0;" parent="WIyWlLk6GJQsqaUBKTNV-1" source="SpBfz0hAXg_JxDmAozGQ-2" target="u-OZXYdGeHlxz3iozldh-1" edge="1">
          <mxGeometry relative="1" as="geometry">
            <mxPoint x="400" y="2000" as="sourcePoint" />
            <Array as="points">
              <mxPoint x="436" y="2023" />
              <mxPoint x="436" y="1940" />
              <mxPoint x="585" y="1940" />
            </Array>
          </mxGeometry>
        </mxCell>
        <mxCell id="u-OZXYdGeHlxz3iozldh-16" value="Utils.Rendering.&lt;br&gt;export_rendered_img()" style="swimlane;whiteSpace=wrap;html=1;startSize=30;fillColor=#008a00;fontColor=#ffffff;strokeColor=#005700;" parent="WIyWlLk6GJQsqaUBKTNV-1" vertex="1">
          <mxGeometry x="-750" y="4130" width="210" height="170" as="geometry">
            <mxRectangle x="80" y="890" width="250" height="30" as="alternateBounds" />
          </mxGeometry>
        </mxCell>
        <mxCell id="u-OZXYdGeHlxz3iozldh-20" value="Render scene" style="rounded=1;whiteSpace=wrap;html=1;fontSize=12;glass=0;strokeWidth=1;shadow=0;" parent="u-OZXYdGeHlxz3iozldh-16" vertex="1">
          <mxGeometry x="40" y="110" width="130" height="30" as="geometry" />
        </mxCell>
        <mxCell id="u-OZXYdGeHlxz3iozldh-21" value="" style="edgeStyle=orthogonalEdgeStyle;rounded=0;orthogonalLoop=1;jettySize=auto;html=1;" parent="u-OZXYdGeHlxz3iozldh-16" source="u-OZXYdGeHlxz3iozldh-22" target="u-OZXYdGeHlxz3iozldh-20" edge="1">
          <mxGeometry relative="1" as="geometry" />
        </mxCell>
        <mxCell id="u-OZXYdGeHlxz3iozldh-22" value="Change render output name" style="rounded=1;whiteSpace=wrap;html=1;fontSize=12;glass=0;strokeWidth=1;shadow=0;" parent="u-OZXYdGeHlxz3iozldh-16" vertex="1">
          <mxGeometry x="40" y="60" width="130" height="30" as="geometry" />
        </mxCell>
        <mxCell id="u-OZXYdGeHlxz3iozldh-18" value="Utils.Rendering.&lt;br&gt;setup_compositing_render()" style="swimlane;whiteSpace=wrap;html=1;startSize=30;fillColor=#d80073;fontColor=#ffffff;strokeColor=#A50040;" parent="WIyWlLk6GJQsqaUBKTNV-1" vertex="1">
          <mxGeometry x="-452" y="4130" width="180" height="290" as="geometry">
            <mxRectangle x="80" y="890" width="250" height="30" as="alternateBounds" />
          </mxGeometry>
        </mxCell>
        <mxCell id="u-OZXYdGeHlxz3iozldh-29" value="Disable Z pass" style="rounded=1;whiteSpace=wrap;html=1;fontSize=12;glass=0;strokeWidth=1;shadow=0;" parent="u-OZXYdGeHlxz3iozldh-18" vertex="1">
          <mxGeometry x="28" y="92.5" width="130" height="30" as="geometry" />
        </mxCell>
        <mxCell id="u-OZXYdGeHlxz3iozldh-30" value="" style="edgeStyle=orthogonalEdgeStyle;rounded=0;orthogonalLoop=1;jettySize=auto;html=1;" parent="u-OZXYdGeHlxz3iozldh-18" source="u-OZXYdGeHlxz3iozldh-31" target="u-OZXYdGeHlxz3iozldh-29" edge="1">
          <mxGeometry relative="1" as="geometry" />
        </mxCell>
        <mxCell id="u-OZXYdGeHlxz3iozldh-31" value="Activate compositing nodes" style="rounded=1;whiteSpace=wrap;html=1;fontSize=12;glass=0;strokeWidth=1;shadow=0;" parent="u-OZXYdGeHlxz3iozldh-18" vertex="1">
          <mxGeometry x="28" y="42.5" width="130" height="30" as="geometry" />
        </mxCell>
        <mxCell id="u-OZXYdGeHlxz3iozldh-33" value="Enable object index pass" style="rounded=1;whiteSpace=wrap;html=1;fontSize=12;glass=0;strokeWidth=1;shadow=0;" parent="u-OZXYdGeHlxz3iozldh-18" vertex="1">
          <mxGeometry x="28" y="140" width="130" height="30" as="geometry" />
        </mxCell>
        <mxCell id="u-OZXYdGeHlxz3iozldh-28" style="edgeStyle=orthogonalEdgeStyle;rounded=0;orthogonalLoop=1;jettySize=auto;html=1;exitX=0.5;exitY=1;exitDx=0;exitDy=0;entryX=0.5;entryY=0;entryDx=0;entryDy=0;" parent="u-OZXYdGeHlxz3iozldh-18" source="u-OZXYdGeHlxz3iozldh-29" target="u-OZXYdGeHlxz3iozldh-33" edge="1">
          <mxGeometry relative="1" as="geometry" />
        </mxCell>
        <mxCell id="u-OZXYdGeHlxz3iozldh-35" value="Configure node tree" style="rounded=1;whiteSpace=wrap;html=1;fontSize=12;glass=0;strokeWidth=1;shadow=0;" parent="u-OZXYdGeHlxz3iozldh-18" vertex="1">
          <mxGeometry x="28" y="190" width="130" height="30" as="geometry" />
        </mxCell>
        <mxCell id="u-OZXYdGeHlxz3iozldh-32" style="edgeStyle=orthogonalEdgeStyle;rounded=0;orthogonalLoop=1;jettySize=auto;html=1;exitX=0.5;exitY=1;exitDx=0;exitDy=0;entryX=0.5;entryY=0;entryDx=0;entryDy=0;" parent="u-OZXYdGeHlxz3iozldh-18" source="u-OZXYdGeHlxz3iozldh-33" target="u-OZXYdGeHlxz3iozldh-35" edge="1">
          <mxGeometry relative="1" as="geometry" />
        </mxCell>
        <mxCell id="u-OZXYdGeHlxz3iozldh-36" value="Adding PNG output for the semantic map" style="rounded=1;whiteSpace=wrap;html=1;fontSize=12;glass=0;strokeWidth=1;shadow=0;" parent="u-OZXYdGeHlxz3iozldh-18" vertex="1">
          <mxGeometry x="28" y="240" width="130" height="30" as="geometry" />
        </mxCell>
        <mxCell id="u-OZXYdGeHlxz3iozldh-34" style="edgeStyle=orthogonalEdgeStyle;rounded=0;orthogonalLoop=1;jettySize=auto;html=1;exitX=0.5;exitY=1;exitDx=0;exitDy=0;entryX=0.5;entryY=0;entryDx=0;entryDy=0;" parent="u-OZXYdGeHlxz3iozldh-18" source="u-OZXYdGeHlxz3iozldh-35" target="u-OZXYdGeHlxz3iozldh-36" edge="1">
          <mxGeometry relative="1" as="geometry" />
        </mxCell>
      </root>
    </mxGraphModel>
  </diagram>
</mxfile>
